<svg id="Layer_1" data-name="Layer 1" xmlns="http://www.w3.org/2000/svg" xmlns:xlink="http://www.w3.org/1999/xlink" viewBox="0 0 65.98 108.18"><defs><style>.cls-1{fill:none;}.cls-2{fill:#f05168;}.cls-3{clip-path:url(#clip-path);}.cls-4{isolation:isolate;}.cls-5{clip-path:url(#clip-path-2);}</style><clipPath id="clip-path" transform="translate(-38.88 -20.91)"><rect class="cls-1" x="38.88" y="20.91" width="65.98" height="108.18"/></clipPath><clipPath id="clip-path-2" transform="translate(-38.88 -20.91)"><rect class="cls-1" x="55.6" y="50.03" width="32.62" height="31.97"/></clipPath></defs><title>Icon _02</title><rect class="cls-2" x="6" width="53.98" height="6"/><rect class="cls-2" y="11.94" width="59.98" height="6.18"/><rect class="cls-2" x="6.12" y="12.75" width="5.9" height="23.25"/><rect class="cls-2" x="54.08" y="18.12" width="5.9" height="17.88"/><rect class="cls-2" y="6" width="6" height="12.12"/><rect class="cls-2" x="59.98" y="6.06" width="6" height="12.12"/><rect class="cls-2" x="12.06" y="36" width="6" height="6.06"/><rect class="cls-2" x="48.08" y="36" width="6" height="6.06"/><rect class="cls-2" x="17.9" y="42.06" width="6" height="11.94"/><rect class="cls-2" x="42.08" y="42.06" width="6" height="11.94"/><rect class="cls-2" x="11.9" y="54" width="6" height="6.06"/><rect class="cls-2" x="48.08" y="54" width="6" height="6.06"/><rect class="cls-2" x="6" y="60.06" width="5.9" height="29.94"/><rect class="cls-2" x="53.9" y="60.06" width="5.9" height="29.94"/><rect class="cls-2" x="29.98" y="65.94" width="6" height="6.06"/><rect class="cls-2" x="23.9" y="72" width="6" height="6.06"/><rect class="cls-2" x="35.9" y="72" width="6" height="6.06"/><rect class="cls-2" x="17.9" y="78.06" width="6" height="6.06"/><rect class="cls-2" x="29.86" y="78.06" width="6" height="6.06"/><rect class="cls-2" x="41.9" y="77.88" width="6" height="6.06"/><rect class="cls-2" x="11.9" y="83.94" width="6" height="6.06"/><rect class="cls-2" x="23.9" y="83.94" width="6" height="6.06"/><rect class="cls-2" x="35.9" y="83.94" width="6" height="6.06"/><rect class="cls-2" x="47.9" y="83.94" width="6" height="6.06"/><rect class="cls-2" x="6" y="102.18" width="53.98" height="6"/><rect class="cls-2" x="6" y="90.06" width="59.98" height="6"/><rect class="cls-2" x="59.98" y="90.06" width="6" height="12.12"/><rect class="cls-2" y="90" width="6" height="12.12"/><g class="cls-3"><g class="cls-4"><g class="cls-5"><polygon class="cls-2" points="25.71 60.09 31.63 60.09 40.34 36.12 34.42 36.12 25.71 60.09"/></g></g></g></svg>