<svg id="Layer_1" data-name="Layer 1" xmlns="http://www.w3.org/2000/svg" xmlns:xlink="http://www.w3.org/1999/xlink" viewBox="0 0 83.94 71.88"><defs><style>.cls-1{fill:none;}.cls-2{fill:#f05168;}.cls-3{clip-path:url(#clip-path);}.cls-4{isolation:isolate;}.cls-5{clip-path:url(#clip-path-2);}</style><clipPath id="clip-path" transform="translate(-28.82 -41.35)"><rect class="cls-1" x="28.82" y="41.35" width="83.94" height="71.88"/></clipPath><clipPath id="clip-path-2" transform="translate(-28.82 -41.35)"><rect class="cls-1" x="54.52" y="74.41" width="37.92" height="36.25"/></clipPath></defs><title>Icon _04</title><rect class="cls-2" x="65.94" width="12" height="6"/><rect class="cls-2" x="65.94" y="17.94" width="12" height="6"/><rect class="cls-2" x="59.94" y="6" width="6" height="11.94"/><rect class="cls-2" x="77.94" y="6" width="6" height="11.94"/><rect class="cls-2" x="48.06" y="11.94" width="11.94" height="6"/><rect class="cls-2" x="35.94" y="17.94" width="12.12" height="6"/><rect class="cls-2" x="24" y="23.94" width="11.94" height="6"/><rect class="cls-2" x="6" y="23.94" width="12" height="6"/><rect class="cls-2" x="6" y="41.88" width="12" height="6"/><rect class="cls-2" y="29.94" width="6" height="11.94"/><rect class="cls-2" x="18" y="29.94" width="6" height="11.94"/><rect class="cls-2" x="65.94" y="47.94" width="12" height="6"/><rect class="cls-2" x="65.94" y="65.88" width="12" height="6"/><rect class="cls-2" x="59.94" y="53.94" width="6" height="11.94"/><rect class="cls-2" x="77.94" y="53.94" width="6" height="11.94"/><g class="cls-3"><g class="cls-4"><g class="cls-5"><polygon class="cls-2" points="26.7 42.06 26.7 49.45 56.62 60.31 56.62 52.92 26.7 42.06"/></g></g></g></svg>