<svg id="Layer_1" data-name="Layer 1" xmlns="http://www.w3.org/2000/svg" xmlns:xlink="http://www.w3.org/1999/xlink" viewBox="0 0 72 95.88"><defs><style>.cls-1{fill:none;}.cls-2{fill:#f05168;}.cls-3{clip-path:url(#clip-path);}.cls-4{isolation:isolate;}.cls-5{clip-path:url(#clip-path-2);}</style><clipPath id="clip-path" transform="translate(-33.88 -27.06)"><rect class="cls-1" x="33.88" y="27.06" width="72" height="95.88"/></clipPath><clipPath id="clip-path-2" transform="translate(-33.88 -27.06)"><rect class="cls-1" x="62.88" y="18.06" width="37.92" height="36.25"/></clipPath></defs><title>Icon _05</title><rect class="cls-2" x="66" y="23.88" width="6" height="36"/><rect class="cls-2" x="54" y="47.88" width="6" height="18.06"/><rect class="cls-2" x="54" y="59.88" width="12" height="6.06"/><rect class="cls-2" x="42" y="53.82" width="6" height="18.06"/><rect class="cls-2" x="42" y="65.82" width="12" height="6.06"/><rect class="cls-2" x="30" y="57.44" width="6" height="32.44"/><rect class="cls-2" x="30.24" y="71.88" width="12" height="6.06"/><rect class="cls-2" x="24" y="89.88" width="6" height="6"/><rect class="cls-2" x="18" y="35.88" width="6" height="54"/><rect class="cls-2" x="12" y="47.88" width="6" height="6.06"/><rect class="cls-2" y="53.94" width="12" height="6.06"/><rect class="cls-2" y="41.82" width="6" height="12.3"/><rect class="cls-2" x="6" y="23.88" width="6" height="17.94"/><rect class="cls-2" x="12" y="11.94" width="6" height="11.94"/><rect class="cls-2" x="18" width="6" height="11.94"/><g class="cls-3"><g class="cls-4"><g class="cls-5"><polygon class="cls-2" points="65.92 18.25 65.92 10.86 36 0 36 7.39 65.92 18.25"/></g></g></g><rect class="cls-2" x="24" width="6" height="6.06"/></svg>