<svg id="Layer_1" data-name="Layer 1" xmlns="http://www.w3.org/2000/svg" xmlns:xlink="http://www.w3.org/1999/xlink" viewBox="0 0 72.24 89.91"><defs><style>.cls-1{fill:none;}.cls-2{fill:#f05168;}.cls-3{clip-path:url(#clip-path);}.cls-4{isolation:isolate;}.cls-5{clip-path:url(#clip-path-2);}.cls-6{clip-path:url(#clip-path-3);}</style><clipPath id="clip-path" transform="translate(-34.82 -25.51)"><rect class="cls-1" x="34.82" y="25.51" width="72.24" height="89.91"/></clipPath><clipPath id="clip-path-2" transform="translate(-34.82 -25.51)"><rect class="cls-1" x="72.71" y="39.34" width="30.7" height="28.83"/></clipPath><clipPath id="clip-path-3" transform="translate(-34.82 -25.51)"><rect class="cls-1" x="72.71" y="24.51" width="30.7" height="28.83"/></clipPath></defs><title>Icon _08</title><rect class="cls-2" x="30" y="17.7" width="18" height="6"/><rect class="cls-2" x="18" y="23.7" width="12" height="6"/><rect class="cls-2" x="12" y="29.7" width="6" height="6"/><rect class="cls-2" x="6" y="35.7" width="6" height="11.88"/><rect class="cls-2" y="47.58" width="6" height="12.09"/><rect class="cls-2" x="66.24" y="47.58" width="6" height="12.09"/><rect class="cls-2" x="54.24" y="71.91" width="6" height="6"/><rect class="cls-2" x="60.24" y="59.67" width="6" height="12.24"/><rect class="cls-2" x="6" y="59.67" width="6" height="12.24"/><rect class="cls-2" x="12" y="71.91" width="6" height="6"/><rect class="cls-2" x="18" y="77.91" width="12" height="6"/><rect class="cls-2" x="42.24" y="77.91" width="12" height="6"/><rect class="cls-2" x="30" y="83.91" width="12.24" height="6"/><g class="cls-3"><g class="cls-4"><g class="cls-5"><polygon class="cls-2" points="46.89 41.66 52.03 41.66 59.59 20.83 54.45 20.83 46.89 41.66"/></g></g><g class="cls-4"><g class="cls-6"><polygon class="cls-2" points="46.89 0 52.03 0 59.59 20.83 54.45 20.83 46.89 0"/></g></g></g></svg>