<svg id="Layer_1" data-name="Layer 1" xmlns="http://www.w3.org/2000/svg" xmlns:xlink="http://www.w3.org/1999/xlink" viewBox="0 0 90 90.1"><defs><style>.cls-1{fill:none;}.cls-2{fill:#f05168;}.cls-3{clip-path:url(#clip-path);}.cls-4{isolation:isolate;}.cls-5{clip-path:url(#clip-path-2);}.cls-6{clip-path:url(#clip-path-4);}</style><clipPath id="clip-path" transform="translate(-25.85 -26.97)"><rect class="cls-1" x="25.85" y="26.97" width="90" height="90.11"/></clipPath><clipPath id="clip-path-2" transform="translate(-25.85 -26.97)"><rect class="cls-1" x="68.27" y="62.01" width="32.6" height="31.93"/></clipPath><clipPath id="clip-path-4" transform="translate(-25.85 -26.97)"><rect class="cls-1" x="40.85" y="44.06" width="32.6" height="31.93"/></clipPath></defs><title>Icon _09</title><rect class="cls-2" x="36" y="6" width="6" height="6"/><rect class="cls-2" x="48" y="6" width="6" height="6"/><rect class="cls-2" x="18" y="12" width="18" height="6"/><rect class="cls-2" x="48" y="24.08" width="12.03" height="6"/><rect class="cls-2" x="30" y="60.12" width="12" height="6"/><rect class="cls-2" x="24" y="54.12" width="6" height="6"/><rect class="cls-2" x="36" width="18" height="6"/><rect class="cls-2" x="12" y="6" width="6" height="6"/><rect class="cls-2" x="6" y="6" width="6" height="12"/><rect class="cls-2" x="12" y="18" width="6" height="18.06"/><rect class="cls-2" y="36.06" width="6" height="18.06"/><rect class="cls-2" x="6" y="48.12" width="6" height="6"/><rect class="cls-2" x="6" y="36.07" width="6" height="6"/><rect class="cls-2" x="12" y="54.01" width="6" height="18.06"/><rect class="cls-2" x="6" y="72.15" width="6" height="11.88"/><rect class="cls-2" x="12" y="78.15" width="6" height="5.81"/><rect class="cls-2" x="36" y="84.1" width="18" height="6"/><rect class="cls-2" x="36" y="78.13" width="6" height="5.98"/><rect class="cls-2" x="48" y="78.13" width="6" height="5.98"/><rect class="cls-2" x="18" y="72.07" width="18" height="6.06"/><rect class="cls-2" x="54" y="72.13" width="18" height="6"/><rect class="cls-2" x="72" y="78.13" width="12" height="5.81"/><rect class="cls-2" x="78" y="72.13" width="6" height="6"/><rect class="cls-2" x="72" y="54.13" width="6" height="18.06"/><rect class="cls-2" x="84" y="36.07" width="6" height="18.06"/><rect class="cls-2" x="78" y="36.07" width="6" height="6"/><rect class="cls-2" x="78" y="48.07" width="6" height="6.06"/><rect class="cls-2" x="72" y="17.95" width="6" height="18.12"/><rect class="cls-2" x="54" y="12" width="18" height="6"/><rect class="cls-2" x="72" y="6" width="6" height="6"/><rect class="cls-2" x="78" y="6" width="6" height="12"/><g class="cls-3"><g class="cls-4"><g class="cls-5"><polygon class="cls-2" points="51.43 65.97 57.34 65.97 66.03 42.04 60.12 42.04 51.43 65.97"/></g></g></g><rect class="cls-2" x="60.03" y="30.08" width="6" height="6"/><g class="cls-3"><g class="cls-4"><g class="cls-6"><polygon class="cls-2" points="24 48.03 29.91 48.03 38.6 24.09 32.69 24.09 24 48.03"/></g></g></g></svg>