<svg id="Layer_1" data-name="Layer 1" xmlns="http://www.w3.org/2000/svg" xmlns:xlink="http://www.w3.org/1999/xlink" viewBox="0 0 90.06 90"><defs><style>.cls-1{fill:none;}.cls-2{fill:#f05168;}.cls-3{clip-path:url(#clip-path);}.cls-4{isolation:isolate;}.cls-5{clip-path:url(#clip-path-2);}</style><clipPath id="clip-path" transform="translate(-28.82 -28.29)"><rect class="cls-1" x="28.82" y="28.29" width="90.06" height="90"/></clipPath><clipPath id="clip-path-2" transform="translate(-28.82 -28.29)"><rect class="cls-1" x="52.83" y="41.69" width="39.84" height="43.81"/></clipPath></defs><title>Icon _10</title><rect class="cls-2" x="30.06" width="29.94" height="6"/><rect class="cls-2" x="18" y="6" width="12.06" height="6"/><rect class="cls-2" x="60" y="6" width="12.06" height="6"/><rect class="cls-2" x="12" y="12" width="6" height="6.06"/><rect class="cls-2" x="72.06" y="12" width="6" height="6.06"/><rect class="cls-2" x="6" y="18.06" width="6" height="11.94"/><rect class="cls-2" x="78.06" y="18.06" width="6" height="11.94"/><rect class="cls-2" y="30" width="6" height="18"/><rect class="cls-2" x="84.06" y="30" width="6" height="18"/><rect class="cls-2" x="6" y="48" width="6" height="11.94"/><rect class="cls-2" x="78.06" y="48" width="6" height="11.94"/><rect class="cls-2" x="12" y="59.94" width="6" height="6.06"/><rect class="cls-2" x="72.06" y="59.94" width="6" height="6.06"/><rect class="cls-2" x="18" y="66" width="12.06" height="6.06"/><rect class="cls-2" x="60" y="66" width="12.06" height="6.06"/><rect class="cls-2" x="47.94" y="72.06" width="12.06" height="6.06"/><rect class="cls-2" x="12" y="83.94" width="35.94" height="6.06"/><rect class="cls-2" x="18" y="72.06" width="6" height="6.06"/><rect class="cls-2" x="12" y="78.12" width="6" height="6.06"/><rect class="cls-2" x="47.94" y="78.12" width="6" height="6.06"/><g class="cls-3"><g class="cls-4"><g class="cls-5"><polygon class="cls-2" points="33.01 56.21 41.85 56.21 54.85 20.4 46.01 20.4 33.01 56.21"/></g></g></g></svg>