<svg id="Layer_1" data-name="Layer 1" xmlns="http://www.w3.org/2000/svg" xmlns:xlink="http://www.w3.org/1999/xlink" viewBox="0 0 90 48"><defs><style>.cls-1{fill:none;}.cls-2{fill:#f05168;}.cls-3{clip-path:url(#clip-path);}.cls-4{isolation:isolate;}.cls-5{clip-path:url(#clip-path-2);}.cls-6{clip-path:url(#clip-path-3);}.cls-7{clip-path:url(#clip-path-4);}.cls-8{clip-path:url(#clip-path-5);}</style><clipPath id="clip-path" transform="translate(-26.76 -53.29)"><rect class="cls-1" x="26.76" y="53.29" width="90" height="48"/></clipPath><clipPath id="clip-path-2" transform="translate(-26.76 -53.29)"><rect class="cls-1" x="29.7" y="58.29" width="32.6" height="31.94"/></clipPath><clipPath id="clip-path-3" transform="translate(-26.76 -53.29)"><rect class="cls-1" x="42.08" y="58.29" width="32.6" height="31.94"/></clipPath><clipPath id="clip-path-4" transform="translate(-26.76 -53.29)"><rect class="cls-1" x="54.46" y="58.29" width="32.6" height="31.94"/></clipPath><clipPath id="clip-path-5" transform="translate(-26.76 -53.29)"><rect class="cls-1" x="66.84" y="58.29" width="32.6" height="31.94"/></clipPath></defs><title>11_Battery</title><rect class="cls-2" width="72" height="6"/><rect class="cls-2" y="42" width="72" height="6"/><rect class="cls-2" width="6" height="48"/><rect class="cls-2" x="72" y="6" width="18" height="6"/><rect class="cls-2" x="72" y="36" width="18" height="6"/><rect class="cls-2" x="84" y="12" width="6" height="30"/><g class="cls-3"><g class="cls-4"><g class="cls-5"><polygon class="cls-2" points="11.94 35.94 17.85 35.94 26.54 12 20.63 12 11.94 35.94"/></g></g><g class="cls-4"><g class="cls-6"><polygon class="cls-2" points="24.32 35.94 30.23 35.94 38.92 12 33.01 12 24.32 35.94"/></g></g><g class="cls-4"><g class="cls-7"><polygon class="cls-2" points="36.7 35.94 42.61 35.94 51.3 12 45.39 12 36.7 35.94"/></g></g><g class="cls-4"><g class="cls-8"><polygon class="cls-2" points="49.08 35.94 54.99 35.94 63.68 12 57.77 12 49.08 35.94"/></g></g></g></svg>