<svg id="Layer_1" data-name="Layer 1" xmlns="http://www.w3.org/2000/svg" xmlns:xlink="http://www.w3.org/1999/xlink" viewBox="0 0 84 78.13"><defs><style>.cls-1{fill:none;}.cls-2{fill:#f05168;}.cls-3{clip-path:url(#clip-path);}.cls-4{isolation:isolate;}.cls-5{clip-path:url(#clip-path-2);}.cls-6{clip-path:url(#clip-path-3);}</style><clipPath id="clip-path" transform="translate(-34.82 -37.16)"><rect class="cls-1" x="34.82" y="37.16" width="84" height="78.13"/></clipPath><clipPath id="clip-path-2" transform="translate(-34.82 -37.16)"><rect class="cls-1" x="52.32" y="42.29" width="36.25" height="37.92"/></clipPath><clipPath id="clip-path-3" transform="translate(-34.82 -37.16)"><rect class="cls-1" x="67.08" y="48.28" width="32.6" height="31.94"/></clipPath></defs><title>12_Monitor</title><rect class="cls-2" x="6" width="72" height="6"/><rect class="cls-2" y="6" width="6" height="53.95"/><rect class="cls-2" x="78" y="6" width="6" height="53.95"/><rect class="cls-2" x="6" y="59.95" width="72.48" height="6"/><rect class="cls-2" x="12" y="72.12" width="60" height="6"/><rect class="cls-2" x="23.94" y="59.95" width="6" height="18.18"/><rect class="cls-2" x="53.94" y="59.95" width="6" height="18.18"/><rect class="cls-2" x="6" y="48" width="72" height="6"/><g class="cls-3"><g class="cls-4"><g class="cls-5"><polygon class="cls-2" points="26.5 42.05 33.89 42.05 44.75 12.13 37.36 12.13 26.5 42.05"/></g></g><g class="cls-4"><g class="cls-6"><polygon class="cls-2" points="41.26 42.05 47.17 42.05 55.86 18.11 49.95 18.11 41.26 42.05"/></g></g></g></svg>