<svg id="Layer_1" data-name="Layer 1" xmlns="http://www.w3.org/2000/svg" xmlns:xlink="http://www.w3.org/1999/xlink" viewBox="0 0 84 78.05"><defs><style>.cls-1{fill:none;}.cls-2{fill:#f05168;}.cls-3{clip-path:url(#clip-path);}.cls-4{isolation:isolate;}.cls-5{clip-path:url(#clip-path-2);}</style><clipPath id="clip-path" transform="translate(-28.58 -35.98)"><rect class="cls-1" x="28.58" y="35.97" width="84" height="78.05"/></clipPath><clipPath id="clip-path-2" transform="translate(-28.58 -35.98)"><rect class="cls-1" x="53.66" y="58.86" width="32.6" height="31.94"/></clipPath></defs><title>13_Camera</title><rect class="cls-2" x="29.76" width="24" height="6"/><rect class="cls-2" x="59.76" y="12" width="18.24" height="6"/><rect class="cls-2" x="23.76" y="6" width="6" height="6"/><rect class="cls-2" x="53.76" y="6" width="6" height="6"/><rect class="cls-2" x="6" y="12" width="17.76" height="6"/><rect class="cls-2" y="18.17" width="6" height="53.88"/><rect class="cls-2" x="78" y="18" width="6" height="54.05"/><rect class="cls-2" y="72.05" width="84" height="6"/><rect class="cls-2" x="29.76" y="18" width="24" height="6"/><rect class="cls-2" x="23.76" y="24.17" width="6" height="6"/><rect class="cls-2" x="53.76" y="24.17" width="6" height="6"/><rect class="cls-2" x="17.76" y="30.17" width="6" height="23.75"/><rect class="cls-2" x="59.76" y="30.17" width="6" height="23.75"/><rect class="cls-2" x="29.76" y="60.08" width="24" height="6"/><rect class="cls-2" x="53.76" y="53.91" width="6" height="6"/><rect class="cls-2" x="23.76" y="53.91" width="6" height="6"/><g class="cls-3"><g class="cls-4"><g class="cls-5"><polygon class="cls-2" points="34.08 53.82 39.99 53.82 48.68 29.89 42.77 29.89 34.08 53.82"/></g></g></g></svg>