<svg id="Layer_1" data-name="Layer 1" xmlns="http://www.w3.org/2000/svg" xmlns:xlink="http://www.w3.org/1999/xlink" viewBox="0 0 30.03 30"><defs><style>.cls-1{fill:none;}.cls-2{clip-path:url(#clip-path);}.cls-3{fill:#db3752;}</style><clipPath id="clip-path" transform="translate(-59.95 -60.29)"><rect class="cls-1" x="59.95" y="60.29" width="30.03" height="30"/></clipPath></defs><title>14chip</title><g class="cls-2"><path class="cls-3" d="M83,81.1H66.9v2.31H83Z" transform="translate(-59.95 -60.29)"/><path class="cls-3" d="M83,67.22H66.9v2.31H83Z" transform="translate(-59.95 -60.29)"/><path class="cls-3" d="M69.21,67.22H66.9V83.37h2.31Z" transform="translate(-59.95 -60.29)"/><path class="cls-3" d="M83,67.22H80.68V83.37H83Z" transform="translate(-59.95 -60.29)"/><path class="cls-3" d="M73.92,64.84H71.61v4.69h2.31Z" transform="translate(-59.95 -60.29)"/><path class="cls-3" d="M78.49,62.59H76.18v6.94h2.31Z" transform="translate(-59.95 -60.29)"/><path class="cls-3" d="M76.18,60.29H73.87v2.3h2.31Z" transform="translate(-59.95 -60.29)"/><path class="cls-3" d="M85.37,71.8H80.68v2.31h4.69Z" transform="translate(-59.95 -60.29)"/><path class="cls-3" d="M88.13,76.37H80.68v2.31h7.45Z" transform="translate(-59.95 -60.29)"/><path class="cls-3" d="M90,74.11H87.67v2.31H90Z" transform="translate(-59.95 -60.29)"/><path class="cls-3" d="M78.44,81.1H76.13v4.61h2.31Z" transform="translate(-59.95 -60.29)"/><path class="cls-3" d="M73.82,81.1h-2.3V88h2.3Z" transform="translate(-59.95 -60.29)"/><path class="cls-3" d="M76.13,88H73.82v2.31h2.31Z" transform="translate(-59.95 -60.29)"/><path class="cls-3" d="M69.22,76.45H64.58v2.31h4.64Z" transform="translate(-59.95 -60.29)"/><path class="cls-3" d="M69.21,71.84H62.26v2.31h6.95Z" transform="translate(-59.95 -60.29)"/><path class="cls-3" d="M62.26,74.15H60v2.3h2.31Z" transform="translate(-59.95 -60.29)"/><path class="cls-3" d="M77.07,71.9H75.35l-2.54,6.92h1.73Z" transform="translate(-59.95 -60.29)"/></g></svg>