<svg id="Layer_1" data-name="Layer 1" xmlns="http://www.w3.org/2000/svg" xmlns:xlink="http://www.w3.org/1999/xlink" viewBox="0 0 78.06 77.99"><defs><style>.cls-1{fill:none;}.cls-2{fill:#f05168;}.cls-3{clip-path:url(#clip-path);}.cls-4{isolation:isolate;}.cls-5{clip-path:url(#clip-path-2);}</style><clipPath id="clip-path" transform="translate(-32.33 -36.01)"><rect class="cls-1" x="32.33" y="36.01" width="78.06" height="77.99"/></clipPath><clipPath id="clip-path-2" transform="translate(-32.33 -36.01)"><rect class="cls-1" x="56.75" y="65.19" width="29.08" height="26"/></clipPath></defs><title>14_Chip</title><rect class="cls-2" x="18.06" y="54.12" width="41.82" height="6"/><rect class="cls-2" x="18.06" y="18.03" width="41.82" height="6"/><rect class="cls-2" x="18.06" y="18.03" width="6" height="41.97"/><rect class="cls-2" x="53.88" y="18.03" width="6" height="41.97"/><rect class="cls-2" x="30.3" y="11.83" width="6" height="12.2"/><rect class="cls-2" x="42.18" y="6" width="6" height="18.03"/><rect class="cls-2" x="36.18" width="6" height="6"/><rect class="cls-2" x="53.88" y="29.94" width="12.2" height="6"/><rect class="cls-2" x="53.88" y="41.82" width="19.38" height="6"/><rect class="cls-2" x="72.06" y="35.94" width="6" height="6"/><rect class="cls-2" x="42.06" y="54.12" width="6" height="11.98"/><rect class="cls-2" x="30.06" y="54.12" width="6" height="17.87"/><rect class="cls-2" x="36.06" y="71.99" width="6" height="6"/><rect class="cls-2" x="12.03" y="42.03" width="12.06" height="6"/><rect class="cls-2" x="6" y="30.03" width="18.06" height="6"/><rect class="cls-2" y="36.03" width="6" height="6"/><g class="cls-3"><g class="cls-4"><g class="cls-5"><polygon class="cls-2" points="44.51 30.18 40.02 30.18 33.42 48.18 37.91 48.18 44.51 30.18"/></g></g></g></svg>