<svg id="Layer_1" data-name="Layer 1" xmlns="http://www.w3.org/2000/svg" xmlns:xlink="http://www.w3.org/1999/xlink" viewBox="0 0 84.07 66.21"><defs><style>.cls-1{fill:none;}.cls-2{fill:#f05168;}.cls-3{clip-path:url(#clip-path);}.cls-4{isolation:isolate;}.cls-5{clip-path:url(#clip-path-2);}</style><clipPath id="clip-path" transform="translate(-31.87 -38.78)"><rect class="cls-1" x="31.87" y="38.78" width="84.07" height="66.21"/></clipPath><clipPath id="clip-path-2" transform="translate(-31.87 -38.78)"><rect class="cls-1" x="80.47" y="73.66" width="29.08" height="26"/></clipPath></defs><title>15_Controller</title><rect class="cls-2" x="12.03" y="24" width="59.97" height="6"/><rect class="cls-2" x="6" y="30" width="6" height="6"/><rect class="cls-2" y="36" width="6" height="17.88"/><rect class="cls-2" x="78.03" y="36" width="6.03" height="17.88"/><rect class="cls-2" x="11.97" y="41.85" width="6" height="6"/><rect class="cls-2" x="72.27" y="54.15" width="6" height="6"/><rect class="cls-2" x="12.03" y="60.21" width="18.03" height="6"/><rect class="cls-2" x="18" y="35.97" width="6" height="17.73"/><rect class="cls-2" x="12" y="41.85" width="18" height="6"/><rect class="cls-2" x="36.03" y="18" width="6" height="6"/><rect class="cls-2" x="30.03" y="12" width="6" height="6"/><rect class="cls-2" x="36.03" y="6" width="12" height="6"/><rect class="cls-2" x="42.03" width="6" height="6"/><rect class="cls-2" x="72.03" y="29.97" width="6" height="6"/><rect class="cls-2" x="6" y="53.73" width="6" height="6"/><rect class="cls-2" x="54.4" y="60.03" width="17.87" height="6"/><rect class="cls-2" x="30.06" y="53.73" width="24.31" height="6"/><g class="cls-3"><g class="cls-4"><g class="cls-5"><polygon class="cls-2" points="68.68 35.88 64.2 35.88 57.6 53.88 62.09 53.88 68.68 35.88"/></g></g></g></svg>