<svg id="Layer_1" data-name="Layer 1" xmlns="http://www.w3.org/2000/svg" xmlns:xlink="http://www.w3.org/1999/xlink" viewBox="0 0 78.24 66.18"><defs><style>.cls-1{fill:none;}.cls-2{fill:#f05168;}.cls-3{clip-path:url(#clip-path);}.cls-4{isolation:isolate;}.cls-5{clip-path:url(#clip-path-2);}</style><clipPath id="clip-path" transform="translate(-33.12 -43.18)"><rect class="cls-1" x="33.12" y="43.17" width="78.24" height="66.18"/></clipPath><clipPath id="clip-path-2" transform="translate(-33.12 -43.18)"><rect class="cls-1" x="44.24" y="70.19" width="26" height="29.08"/></clipPath></defs><title>16_Keyboard</title><rect class="cls-2" y="24" width="78.24" height="6"/><rect class="cls-2" y="60.18" width="78.24" height="6"/><rect class="cls-2" y="24" width="6" height="42.18"/><rect class="cls-2" x="72.24" y="24" width="6" height="42.18"/><rect class="cls-2" x="48" y="36.18" width="18" height="6"/><rect class="cls-2" x="60" y="48.06" width="6" height="6"/><rect class="cls-2" x="36" y="18" width="6" height="6"/><rect class="cls-2" x="30" y="12" width="6" height="6"/><rect class="cls-2" x="36" y="6" width="12" height="6"/><rect class="cls-2" x="42" width="6" height="6"/><g class="cls-3"><g class="cls-4"><g class="cls-5"><polygon class="cls-2" points="12.12 36.02 12.12 40.5 30.12 47.1 30.12 42.61 12.12 36.02"/></g></g></g><rect class="cls-2" x="36" y="36.02" width="6" height="6"/><rect class="cls-2" x="12.12" y="48.06" width="6.12" height="6"/><rect class="cls-2" x="36" y="48.06" width="18" height="6"/></svg>