<svg id="Layer_1" data-name="Layer 1" xmlns="http://www.w3.org/2000/svg" xmlns:xlink="http://www.w3.org/1999/xlink" viewBox="0 0 84.07 66.48"><defs><style>.cls-1{fill:none;}.cls-2{fill:#f05168;}.cls-3{clip-path:url(#clip-path);}.cls-4{isolation:isolate;}.cls-5{clip-path:url(#clip-path-2);}</style><clipPath id="clip-path" transform="translate(-28.92 -40.2)"><rect class="cls-1" x="28.92" y="40.2" width="84.07" height="66.48"/></clipPath><clipPath id="clip-path-2" transform="translate(-28.92 -40.2)"><rect class="cls-1" x="57.74" y="31.2" width="38.31" height="36.49"/></clipPath></defs><title>17_Google</title><rect class="cls-2" x="12" y="18.36" width="60.06" height="6.13"/><rect class="cls-2" x="12.13" y="60.42" width="24.03" height="6.03"/><rect class="cls-2" x="36.13" y="54.42" width="12.06" height="6"/><rect class="cls-2" x="72.07" y="24.45" width="6" height="6"/><rect class="cls-2" x="54" y="30.36" width="12" height="6"/><rect class="cls-2" x="54" y="48.3" width="12" height="6"/><rect class="cls-2" x="48.01" y="36.36" width="6" height="11.94"/><rect class="cls-2" y="30.42" width="6" height="23.76"/><rect class="cls-2" x="78.07" y="30.42" width="6" height="24"/><rect class="cls-2" x="48.01" y="60.45" width="24" height="6.03"/><rect class="cls-2" x="6" y="24.42" width="6" height="6"/><rect class="cls-2" x="6.13" y="54.45" width="6" height="6"/><rect class="cls-2" x="71.94" y="54.3" width="6" height="6"/><rect class="cls-2" x="18.13" y="12.36" width="6" height="6"/><rect class="cls-2" x="66" y="36.36" width="6" height="11.94"/><rect class="cls-2" x="18" y="30.42" width="12" height="6"/><rect class="cls-2" x="18" y="48.36" width="12" height="6"/><rect class="cls-2" x="12" y="36.42" width="6" height="11.94"/><rect class="cls-2" x="30" y="36.42" width="6" height="11.94"/><g class="cls-3"><g class="cls-4"><g class="cls-5"><polygon class="cls-2" points="29.82 0 29.82 7.49 60.14 18.49 60.14 11.01 29.82 0"/></g></g></g><rect class="cls-2" x="23.83" y="6.36" width="6" height="6"/></svg>