<svg id="Layer_1" data-name="Layer 1" xmlns="http://www.w3.org/2000/svg" xmlns:xlink="http://www.w3.org/1999/xlink" viewBox="0 0 54 102.15"><defs><style>.cls-1{fill:none;}.cls-2{fill:#f05168;}.cls-3{clip-path:url(#clip-path);}.cls-4{isolation:isolate;}.cls-5{clip-path:url(#clip-path-2);}</style><clipPath id="clip-path" transform="translate(-46.82 -26.93)"><rect class="cls-1" x="46.82" y="26.93" width="54" height="102.15"/></clipPath><clipPath id="clip-path-2" transform="translate(-46.82 -26.93)"><rect class="cls-1" x="59.42" y="31.85" width="29.02" height="26.06"/></clipPath></defs><title>18_Mouse</title><rect class="cls-2" x="48" y="11.93" width="6" height="54.17"/><rect class="cls-2" y="12.02" width="6" height="54.03"/><rect class="cls-2" x="6.12" y="66.1" width="12" height="6"/><rect class="cls-2" x="36" y="66.13" width="12" height="6"/><rect class="cls-2" x="18.06" y="72.13" width="17.94" height="6"/><rect class="cls-2" x="36" y="5.93" width="12" height="6"/><rect class="cls-2" x="6" y="5.93" width="12" height="6.06"/><rect class="cls-2" x="18" width="18" height="6"/><rect class="cls-2" x="6" y="29.99" width="12" height="6"/><rect class="cls-2" x="36" y="29.99" width="12" height="6"/><rect class="cls-2" x="18" y="35.99" width="18" height="6"/><rect class="cls-2" x="18" y="96.15" width="6" height="6"/><rect class="cls-2" x="12" y="90.15" width="6" height="6"/><rect class="cls-2" x="18" y="84.15" width="12" height="6"/><rect class="cls-2" x="24" y="78.15" width="6" height="6"/><g class="cls-3"><g class="cls-4"><g class="cls-5"><polygon class="cls-2" points="21.6 29.99 26.06 29.99 32.62 11.93 28.16 11.93 21.6 29.99"/></g></g></g></svg>