<svg id="Layer_1" data-name="Layer 1" xmlns="http://www.w3.org/2000/svg" xmlns:xlink="http://www.w3.org/1999/xlink" viewBox="0 0 96.24 54"><defs><style>.cls-1{fill:none;}.cls-2{fill:#f05168;}.cls-3{clip-path:url(#clip-path);}.cls-4{isolation:isolate;}.cls-5{clip-path:url(#clip-path-2);}</style><clipPath id="clip-path" transform="translate(-25.82 -51.47)"><rect class="cls-1" x="25.82" y="51.47" width="96.24" height="54"/></clipPath><clipPath id="clip-path-2" transform="translate(-25.82 -51.47)"><rect class="cls-1" x="50.91" y="59.98" width="37.92" height="36.25"/></clipPath></defs><title>19_USB</title><rect class="cls-2" x="12" y="48" width="60.2" height="6"/><rect class="cls-2" x="12.04" width="60.2" height="6"/><rect class="cls-2" x="6.03" y="6.12" width="6" height="12"/><rect class="cls-2" x="6" y="36" width="6" height="12"/><rect class="cls-2" y="18.06" width="6" height="17.94"/><rect class="cls-2" x="72.24" y="6.12" width="6" height="41.76"/><rect class="cls-2" x="72.24" y="42" width="18.01" height="6"/><rect class="cls-2" x="72.24" y="6.12" width="18.01" height="6"/><rect class="cls-2" x="90.24" y="6.12" width="6" height="41.88"/><rect class="cls-2" x="78.24" y="18" width="6" height="6"/><rect class="cls-2" x="78.24" y="30" width="6" height="6"/><g class="cls-3"><g class="cls-4"><g class="cls-5"><polygon class="cls-2" points="26.08 17.51 26.08 24.89 56.01 35.76 56.01 28.37 26.08 17.51"/></g></g></g></svg>