<svg id="Layer_1" data-name="Layer 1" xmlns="http://www.w3.org/2000/svg" xmlns:xlink="http://www.w3.org/1999/xlink" viewBox="0 0 90.06 72.12"><defs><style>.cls-1{fill:none;}.cls-2{fill:#f05168;}.cls-3{clip-path:url(#clip-path);}.cls-4{isolation:isolate;}.cls-5{clip-path:url(#clip-path-2);}</style><clipPath id="clip-path" transform="translate(-27.44 -40.27)"><rect class="cls-1" x="27.44" y="40.26" width="90.06" height="72.12"/></clipPath><clipPath id="clip-path-2" transform="translate(-27.44 -40.27)"><rect class="cls-1" x="72.56" y="60.32" width="32.71" height="32.12"/></clipPath></defs><title>20_Love</title><rect class="cls-2" x="12" width="24" height="6"/><rect class="cls-2" x="6" y="6" width="6" height="6.06"/><rect class="cls-2" y="12.06" width="6" height="30.24"/><rect class="cls-2" x="6" y="42" width="6" height="6.06"/><rect class="cls-2" x="41.94" y="66.06" width="6" height="6.06"/><rect class="cls-2" x="18" y="54.12" width="12.06" height="6.06"/><rect class="cls-2" x="12" y="48.06" width="6" height="6.06"/><rect class="cls-2" x="30.06" y="60" width="12.06" height="6.06"/><rect class="cls-2" x="36.12" y="6" width="6" height="6.06"/><rect class="cls-2" x="42.12" y="12.06" width="6" height="6.06"/><rect class="cls-2" x="48.12" y="6" width="6" height="6.06"/><rect class="cls-2" x="54.06" width="24" height="6"/><rect class="cls-2" x="78.06" y="6" width="6" height="6.06"/><rect class="cls-2" x="84.06" y="12.06" width="6" height="30.24"/><rect class="cls-2" x="78.06" y="42" width="6" height="6.06"/><rect class="cls-2" x="60" y="54.12" width="12.06" height="6.06"/><rect class="cls-2" x="72.06" y="48.06" width="6" height="6.06"/><rect class="cls-2" x="47.94" y="60" width="12.06" height="6.06"/><g class="cls-3"><g class="cls-4"><g class="cls-5"><polygon class="cls-2" points="68.83 21.06 62.88 21.06 54.12 45.18 60.08 45.18 68.83 21.06"/></g></g></g></svg>