<svg id="Layer_1" data-name="Layer 1" xmlns="http://www.w3.org/2000/svg" xmlns:xlink="http://www.w3.org/1999/xlink" viewBox="0 0 78.18 90"><defs><style>.cls-1{fill:none;}.cls-2{fill:#f05168;}.cls-3{clip-path:url(#clip-path);}.cls-4{isolation:isolate;}.cls-5{clip-path:url(#clip-path-2);}.cls-6{clip-path:url(#clip-path-3);}</style><clipPath id="clip-path" transform="translate(-31.03 -24.97)"><rect class="cls-1" x="31.03" y="24.97" width="78.18" height="90"/></clipPath><clipPath id="clip-path-2" transform="translate(-31.03 -24.97)"><rect class="cls-1" x="34.33" y="17.97" width="32.6" height="31.94"/></clipPath><clipPath id="clip-path-3" transform="translate(-31.03 -24.97)"><rect class="cls-1" x="75.88" y="17.97" width="32.6" height="31.94"/></clipPath></defs><title>20_Eyes</title><rect class="cls-2" x="6" y="30" width="23.94" height="6"/><rect class="cls-2" y="36" width="6" height="48"/><rect class="cls-2" x="6" y="84" width="23.94" height="6"/><rect class="cls-2" x="29.94" y="36" width="6" height="48"/><rect class="cls-2" x="6" y="54" width="12" height="23.76"/><rect class="cls-2" x="48.24" y="30" width="23.94" height="6"/><rect class="cls-2" x="42.24" y="36" width="6" height="48"/><rect class="cls-2" x="48.24" y="84" width="23.94" height="6"/><rect class="cls-2" x="72.18" y="36" width="6" height="48"/><rect class="cls-2" x="48.24" y="54" width="12" height="23.76"/><g class="cls-3"><g class="cls-4"><g class="cls-5"><polygon class="cls-2" points="12.3 23.94 18.21 23.94 26.9 0 20.99 0 12.3 23.94"/></g></g><g class="cls-4"><g class="cls-6"><polygon class="cls-2" points="53.85 23.94 59.76 23.94 68.45 0 62.54 0 53.85 23.94"/></g></g></g></svg>