<svg id="Layer_1" data-name="Layer 1" xmlns="http://www.w3.org/2000/svg" xmlns:xlink="http://www.w3.org/1999/xlink" viewBox="0 0 90 90.24"><defs><style>.cls-1{fill:none;}.cls-2{fill:#f05168;}.cls-3{clip-path:url(#clip-path);}.cls-4{isolation:isolate;}.cls-5{clip-path:url(#clip-path-2);}.cls-6{clip-path:url(#clip-path-3);}.cls-7{clip-path:url(#clip-path-4);}.cls-8{clip-path:url(#clip-path-5);}.cls-9{clip-path:url(#clip-path-6);}.cls-10{clip-path:url(#clip-path-7);}.cls-11{clip-path:url(#clip-path-8);}.cls-12{clip-path:url(#clip-path-9);}</style><clipPath id="clip-path" transform="translate(-24.41 -31.17)"><rect class="cls-1" x="24.41" y="31.17" width="90" height="90.24"/></clipPath><clipPath id="clip-path-2" transform="translate(-24.41 -31.17)"><rect class="cls-1" x="28.97" y="66.21" width="26.76" height="22.37"/></clipPath><clipPath id="clip-path-3" transform="translate(-24.41 -31.17)"><rect class="cls-1" x="28.97" y="87.73" width="26.76" height="22.36"/></clipPath><clipPath id="clip-path-4" transform="translate(-24.41 -31.17)"><rect class="cls-1" x="57.53" y="36.05" width="26.76" height="22.37"/></clipPath><clipPath id="clip-path-5" transform="translate(-24.41 -31.17)"><rect class="cls-1" x="57.53" y="57.89" width="26.76" height="22.37"/></clipPath><clipPath id="clip-path-6" transform="translate(-24.41 -31.17)"><rect class="cls-1" x="71.09" y="36.05" width="26.76" height="22.37"/></clipPath><clipPath id="clip-path-7" transform="translate(-24.41 -31.17)"><rect class="cls-1" x="71.09" y="57.89" width="26.76" height="22.37"/></clipPath><clipPath id="clip-path-8" transform="translate(-24.41 -31.17)"><rect class="cls-1" x="84.65" y="36.05" width="26.76" height="22.37"/></clipPath><clipPath id="clip-path-9" transform="translate(-24.41 -31.17)"><rect class="cls-1" x="84.65" y="57.89" width="26.76" height="22.37"/></clipPath></defs><title>22_Building</title><rect class="cls-2" x="30" width="60" height="6"/><rect class="cls-2" x="30" width="6" height="90.24"/><rect class="cls-2" x="84" width="6" height="90.24"/><rect class="cls-2" y="84.24" width="90" height="6"/><rect class="cls-2" y="30" width="6" height="60.24"/><rect class="cls-2" y="30" width="36" height="6"/><rect class="cls-2" x="54" y="60" width="12.3" height="24.24"/><g class="cls-3"><g class="cls-4"><g class="cls-5"><polygon class="cls-2" points="13.56 56.4 17.11 56.4 22.32 42.04 18.77 42.04 13.56 56.4"/></g></g><g class="cls-4"><g class="cls-6"><polygon class="cls-2" points="13.56 77.92 17.11 77.92 22.32 63.55 18.77 63.55 13.56 77.92"/></g></g><g class="cls-4"><g class="cls-7"><polygon class="cls-2" points="42.12 26.25 45.67 26.25 50.88 11.88 47.34 11.88 42.12 26.25"/></g></g><g class="cls-4"><g class="cls-8"><polygon class="cls-2" points="42.12 48.09 45.67 48.09 50.88 33.72 47.34 33.72 42.12 48.09"/></g></g><g class="cls-4"><g class="cls-9"><polygon class="cls-2" points="55.68 26.25 59.23 26.25 64.44 11.88 60.89 11.88 55.68 26.25"/></g></g><g class="cls-4"><g class="cls-10"><polygon class="cls-2" points="55.68 48.09 59.23 48.09 64.44 33.72 60.89 33.72 55.68 48.09"/></g></g><g class="cls-4"><g class="cls-11"><polygon class="cls-2" points="69.24 26.25 72.78 26.25 78 11.88 74.45 11.88 69.24 26.25"/></g></g><g class="cls-4"><g class="cls-12"><polygon class="cls-2" points="69.24 48.09 72.78 48.09 78 33.72 74.45 33.72 69.24 48.09"/></g></g></g></svg>