<svg id="Layer_1" data-name="Layer 1" xmlns="http://www.w3.org/2000/svg" xmlns:xlink="http://www.w3.org/1999/xlink" viewBox="0 0 77.76 78"><defs><style>.cls-1{fill:none;}.cls-2{fill:#f05168;}.cls-3{clip-path:url(#clip-path);}.cls-4{isolation:isolate;}.cls-5{clip-path:url(#clip-path-2);}.cls-6{clip-path:url(#clip-path-3);}.cls-7{clip-path:url(#clip-path-4);}</style><clipPath id="clip-path" transform="translate(-33.24 -39.94)"><rect class="cls-1" x="33.24" y="39.94" width="77.76" height="78"/></clipPath><clipPath id="clip-path-2" transform="translate(-33.24 -39.94)"><rect class="cls-1" x="49.02" y="62.94" width="28.96" height="25.96"/></clipPath><clipPath id="clip-path-3" transform="translate(-33.24 -39.94)"><rect class="cls-1" x="55.76" y="74.94" width="28.96" height="25.96"/></clipPath><clipPath id="clip-path-4" transform="translate(-33.24 -39.94)"><rect class="cls-1" x="69.48" y="62.94" width="28.96" height="25.96"/></clipPath></defs><title>24_Pizza</title><rect class="cls-2" x="5.76" width="66" height="6"/><rect class="cls-2" y="6" width="6" height="18"/><rect class="cls-2" x="71.76" y="6" width="6" height="18"/><rect class="cls-2" x="6" y="24" width="6" height="12"/><rect class="cls-2" x="65.76" y="24" width="6" height="12"/><rect class="cls-2" x="12" y="36" width="6" height="12.06"/><rect class="cls-2" x="59.76" y="36" width="6" height="12.06"/><rect class="cls-2" x="18" y="48.06" width="6" height="6.18"/><rect class="cls-2" x="53.76" y="48.06" width="6" height="6.18"/><rect class="cls-2" x="24" y="54.24" width="6" height="11.76"/><rect class="cls-2" x="47.76" y="54.24" width="6" height="11.76"/><rect class="cls-2" x="30" y="66" width="6" height="6"/><rect class="cls-2" x="41.76" y="66" width="6" height="6"/><rect class="cls-2" x="36" y="72" width="6" height="6"/><rect class="cls-2" x="12" y="18" width="41.76" height="6"/><rect class="cls-2" x="59.76" y="18" width="6" height="6"/><g class="cls-3"><g class="cls-4"><g class="cls-5"><polygon class="cls-2" points="24.78 47.96 29.21 47.96 35.73 30 31.3 30 24.78 47.96"/></g></g><g class="cls-4"><g class="cls-6"><polygon class="cls-2" points="31.52 59.96 35.95 59.96 42.48 42 38.04 42 31.52 59.96"/></g></g><g class="cls-4"><g class="cls-7"><polygon class="cls-2" points="45.24 47.96 49.67 47.96 56.2 30 51.76 30 45.24 47.96"/></g></g></g></svg>