<svg id="Layer_1" data-name="Layer 1" xmlns="http://www.w3.org/2000/svg" xmlns:xlink="http://www.w3.org/1999/xlink" viewBox="0 0 77.88 78.24"><defs><style>.cls-1{fill:none;}.cls-2{fill:#f05168;}.cls-3{clip-path:url(#clip-path);}.cls-4{isolation:isolate;}.cls-5{clip-path:url(#clip-path-2);}.cls-6{clip-path:url(#clip-path-3);}.cls-7{clip-path:url(#clip-path-4);}.cls-8{clip-path:url(#clip-path-5);}.cls-9{clip-path:url(#clip-path-6);}.cls-10{clip-path:url(#clip-path-7);}</style><clipPath id="clip-path" transform="translate(-34.82 -35.88)"><rect class="cls-1" x="34.82" y="35.88" width="77.88" height="78.24"/></clipPath><clipPath id="clip-path-2" transform="translate(-34.82 -35.88)"><rect class="cls-1" x="83.06" y="62" width="25.47" height="20.24"/></clipPath><clipPath id="clip-path-3" transform="translate(-34.82 -35.88)"><rect class="cls-1" x="36.82" y="62" width="25.47" height="20.24"/></clipPath><clipPath id="clip-path-4" transform="translate(-34.82 -35.88)"><rect class="cls-1" x="45.86" y="43.64" width="25.47" height="20.24"/></clipPath><clipPath id="clip-path-5" transform="translate(-34.82 -35.88)"><rect class="cls-1" x="60.38" y="86.48" width="25.47" height="20.24"/></clipPath><clipPath id="clip-path-6" transform="translate(-34.82 -35.88)"><rect class="cls-1" x="77.06" y="79.39" width="25.47" height="20.24"/></clipPath><clipPath id="clip-path-7" transform="translate(-34.82 -35.88)"><rect class="cls-1" x="76.34" y="43.64" width="25.47" height="20.24"/></clipPath></defs><title>25_Donut</title><rect class="cls-2" x="30" width="17.76" height="6"/><rect class="cls-2" x="18" y="6" width="12" height="6"/><rect class="cls-2" x="47.76" y="6" width="12.12" height="6"/><rect class="cls-2" x="12" y="12" width="6" height="6"/><rect class="cls-2" x="59.88" y="12" width="6" height="6"/><rect class="cls-2" x="6" y="18" width="6" height="11.88"/><rect class="cls-2" x="65.88" y="18" width="6" height="11.88"/><rect class="cls-2" y="29.88" width="6" height="18.12"/><rect class="cls-2" x="71.88" y="29.88" width="6" height="18.12"/><rect class="cls-2" x="59.88" y="60.24" width="6" height="6"/><rect class="cls-2" x="65.88" y="48" width="6" height="12.24"/><rect class="cls-2" x="6" y="48" width="6" height="12.24"/><rect class="cls-2" x="12" y="60.24" width="6" height="6"/><rect class="cls-2" x="18" y="66.24" width="12" height="6"/><rect class="cls-2" x="47.88" y="66.24" width="12" height="6"/><rect class="cls-2" x="30" y="72.24" width="17.76" height="6"/><rect class="cls-2" x="29.76" y="23.88" width="18" height="6"/><rect class="cls-2" x="29.76" y="48" width="18.12" height="6"/><rect class="cls-2" x="47.88" y="30" width="6" height="18"/><rect class="cls-2" x="23.76" y="29.88" width="6" height="18.12"/><g class="cls-3"><g class="cls-4"><g class="cls-5"><polygon class="cls-2" points="57.24 45.36 60.26 45.36 64.71 33.12 61.68 33.12 57.24 45.36"/></g></g><g class="cls-4"><g class="cls-6"><polygon class="cls-2" points="11 45.36 14.02 45.36 18.47 33.12 15.44 33.12 11 45.36"/></g></g><g class="cls-4"><g class="cls-7"><polygon class="cls-2" points="20.04 27 23.06 27 27.51 14.76 24.48 14.76 20.04 27"/></g></g><g class="cls-4"><g class="cls-8"><polygon class="cls-2" points="34.56 69.84 37.58 69.84 42.03 57.6 39 57.6 34.56 69.84"/></g></g><g class="cls-4"><g class="cls-9"><polygon class="cls-2" points="51.24 62.75 54.26 62.75 58.71 50.51 55.68 50.51 51.24 62.75"/></g></g><g class="cls-4"><g class="cls-10"><polygon class="cls-2" points="50.52 27 53.54 27 57.99 14.76 54.96 14.76 50.52 27"/></g></g></g></svg>