<svg id="Layer_1" data-name="Layer 1" xmlns="http://www.w3.org/2000/svg" xmlns:xlink="http://www.w3.org/1999/xlink" viewBox="0 0 83.91 72.03"><defs><style>.cls-1{fill:none;}.cls-2{fill:#f05168;}.cls-3{clip-path:url(#clip-path);}.cls-4{isolation:isolate;}.cls-5{clip-path:url(#clip-path-2);}.cls-6{clip-path:url(#clip-path-3);}.cls-7{clip-path:url(#clip-path-4);}</style><clipPath id="clip-path" transform="translate(-33.04 -38.98)"><rect class="cls-1" x="33.04" y="38.98" width="83.91" height="72.03"/></clipPath><clipPath id="clip-path-2" transform="translate(-33.04 -38.98)"><rect class="cls-1" x="47.92" y="43.86" width="25.47" height="20.24"/></clipPath><clipPath id="clip-path-3" transform="translate(-33.04 -38.98)"><rect class="cls-1" x="73.6" y="43.86" width="25.47" height="20.24"/></clipPath><clipPath id="clip-path-4" transform="translate(-33.04 -38.98)"><rect class="cls-1" x="58.96" y="46.98" width="29.08" height="26"/></clipPath></defs><title>26_Hamburger</title><rect class="cls-2" x="24.03" width="35.85" height="6"/><rect class="cls-2" x="18" y="6" width="6" height="6"/><rect class="cls-2" x="6" y="18.06" width="6" height="17.88"/><rect class="cls-2" x="71.88" y="17.97" width="6.03" height="12"/><rect class="cls-2" x="12" y="29.94" width="65.91" height="6"/><rect class="cls-2" x="65.88" y="11.97" width="6" height="6"/><rect class="cls-2" x="59.88" y="5.97" width="6" height="6"/><rect class="cls-2" x="12" y="12.06" width="6" height="6"/><rect class="cls-2" y="36.15" width="6" height="12.3"/><rect class="cls-2" x="77.91" y="35.94" width="6" height="12.09"/><rect class="cls-2" x="5.97" y="48.03" width="71.88" height="6"/><rect class="cls-2" x="6" y="48.15" width="6" height="17.88"/><rect class="cls-2" x="71.91" y="48.12" width="6" height="17.91"/><rect class="cls-2" x="12" y="66.03" width="59.97" height="6"/><g class="cls-3"><g class="cls-4"><g class="cls-5"><polygon class="cls-2" points="23.88 24.12 26.9 24.12 31.35 11.88 28.32 11.88 23.88 24.12"/></g></g><g class="cls-4"><g class="cls-6"><polygon class="cls-2" points="49.56 24.12 52.58 24.12 57.03 11.88 54 11.88 49.56 24.12"/></g></g><g class="cls-4"><g class="cls-7"><polygon class="cls-2" points="45.99 9 41.51 9 34.91 27 39.4 27 45.99 9"/></g></g></g></svg>