<svg id="Layer_1" data-name="Layer 1" xmlns="http://www.w3.org/2000/svg" xmlns:xlink="http://www.w3.org/1999/xlink" viewBox="0 0 74.85 48.12"><defs><style>.cls-1{fill:none;}.cls-2{fill:#f05168;}.cls-3{clip-path:url(#clip-path);}.cls-4{isolation:isolate;}.cls-5{clip-path:url(#clip-path-2);}</style><clipPath id="clip-path" transform="translate(-41.13 -52.23)"><rect class="cls-1" x="41.13" y="52.23" width="74.85" height="48.12"/></clipPath><clipPath id="clip-path-2" transform="translate(-41.13 -52.23)"><rect class="cls-1" x="92.22" y="63.25" width="32.77" height="31.98"/></clipPath></defs><title>27_BIMbot</title><rect class="cls-2" y="6" width="6" height="30.12"/><rect class="cls-2" x="6" y="36.12" width="54" height="6"/><rect class="cls-2" x="12" y="42.12" width="6" height="6"/><rect class="cls-2" x="48" y="42.12" width="6" height="6"/><rect class="cls-2" x="6" y="18" width="6" height="6"/><rect class="cls-2" x="12" y="12" width="42" height="6"/><rect class="cls-2" x="54" y="18" width="6" height="18"/><rect class="cls-2" x="18" y="6" width="6" height="6"/><rect class="cls-2" x="12" width="6" height="6"/><rect class="cls-2" x="42" y="6" width="6" height="6"/><rect class="cls-2" x="48" width="6" height="6"/><rect class="cls-2" x="18" y="24" width="6" height="6"/><rect class="cls-2" x="42" y="24" width="6" height="6"/><g class="cls-3"><g class="cls-4"><g class="cls-5"><polygon class="cls-2" points="74.85 12.02 68.88 12.02 60.09 36 66.06 36 74.85 12.02"/></g></g></g></svg>