<svg id="Layer_1" data-name="Layer 1" xmlns="http://www.w3.org/2000/svg" xmlns:xlink="http://www.w3.org/1999/xlink" viewBox="0 0 66 60"><defs><style>.cls-1{fill:none;}.cls-2{fill:#f05168;}.cls-3{clip-path:url(#clip-path);}.cls-4{isolation:isolate;}.cls-5{clip-path:url(#clip-path-2);}</style><clipPath id="clip-path" transform="translate(-42 -49.15)"><rect class="cls-1" x="42" y="49.15" width="66" height="60"/></clipPath><clipPath id="clip-path-2" transform="translate(-42 -49.15)"><rect class="cls-1" x="80.49" y="90.27" width="29" height="25.87"/></clipPath></defs><title>28_INNObot</title><rect class="cls-2" y="18" width="6" height="12.12"/><rect class="cls-2" x="60" y="18" width="6" height="12.12"/><rect class="cls-2" x="12" y="36.12" width="42" height="6"/><rect class="cls-2" x="6" y="12" width="18" height="6"/><rect class="cls-2" x="24" y="6" width="18.09" height="6"/><rect class="cls-2" x="42" y="12" width="18" height="6"/><rect class="cls-2" x="54" y="30.12" width="6" height="6"/><rect class="cls-2" x="18" y="24" width="6" height="6"/><rect class="cls-2" x="42" y="24" width="6" height="6"/><rect class="cls-2" x="6" y="30.12" width="6" height="6"/><rect class="cls-2" x="6" y="42.12" width="6" height="6"/><rect class="cls-2" x="12" y="48.12" width="6" height="6"/><g class="cls-3"><g class="cls-4"><g class="cls-5"><polygon class="cls-2" points="58.49 42.13 54.03 42.13 47.49 60 51.94 60 58.49 42.13"/></g></g></g><rect class="cls-2" x="18" y="54" width="6" height="6"/><rect class="cls-2" x="42.09" width="6" height="6"/><rect class="cls-2" x="17.85" width="6" height="6"/></svg>