<svg id="Layer_1" data-name="Layer 1" xmlns="http://www.w3.org/2000/svg" xmlns:xlink="http://www.w3.org/1999/xlink" viewBox="0 0 65.97 66.03"><defs><style>.cls-1{fill:none;}.cls-2{fill:#f05168;}.cls-3{clip-path:url(#clip-path);}.cls-4{isolation:isolate;}.cls-5{clip-path:url(#clip-path-2);}</style><clipPath id="clip-path" transform="translate(-40.82 -41.15)"><rect class="cls-1" x="40.82" y="41.15" width="65.97" height="66.03"/></clipPath><clipPath id="clip-path-2" transform="translate(-40.82 -41.15)"><rect class="cls-1" x="61.89" y="40.15" width="29.08" height="26"/></clipPath></defs><title>29_SIMbot</title><rect class="cls-2" y="23.98" width="12.07" height="6.12"/><rect class="cls-2" x="53.99" y="24.03" width="11.98" height="6"/><rect class="cls-2" x="5.97" y="42.03" width="54" height="6"/><rect class="cls-2" x="12.07" y="18" width="41.91" height="5.98"/><rect class="cls-2" x="59.97" y="30.03" width="6" height="6"/><rect class="cls-2" x="17.91" y="30.1" width="6" height="6"/><rect class="cls-2" x="42" y="30.03" width="6" height="6"/><rect class="cls-2" y="30.03" width="6.12" height="6"/><rect class="cls-2" x="36" y="48.03" width="6" height="6"/><rect class="cls-2" x="42" y="54.03" width="6" height="6"/><rect class="cls-2" x="53.97" y="36.03" width="6" height="6"/><rect class="cls-2" x="5.97" y="36.03" width="6" height="6"/><rect class="cls-2" x="48" y="60.03" width="6" height="6"/><g class="cls-3"><g class="cls-4"><g class="cls-5"><polygon class="cls-2" points="41.15 0 36.66 0 30.07 18 34.55 18 41.15 0"/></g></g></g><rect class="cls-2" x="24.07" y="48.03" width="6" height="6"/><rect class="cls-2" x="18.07" y="54.03" width="6" height="6"/><rect class="cls-2" x="12.07" y="60.03" width="6" height="6"/><rect class="cls-2" x="30.07" y="54.03" width="6" height="6"/></svg>