<svg id="Layer_1" data-name="Layer 1" xmlns="http://www.w3.org/2000/svg" xmlns:xlink="http://www.w3.org/1999/xlink" viewBox="0 0 95.98 71.97"><defs><style>.cls-1{fill:none;}.cls-2{fill:#f05168;}.cls-3{clip-path:url(#clip-path);}.cls-4{isolation:isolate;}.cls-5{clip-path:url(#clip-path-2);}</style><clipPath id="clip-path" transform="translate(-24.24 -37.1)"><rect class="cls-1" x="24.24" y="37.1" width="95.98" height="71.97"/></clipPath><clipPath id="clip-path-2" transform="translate(-24.24 -37.1)"><rect class="cls-1" x="32.98" y="72.12" width="36.26" height="37.94"/></clipPath></defs><title>30_Stethoscope</title><rect class="cls-2" x="36" y="65.97" width="29.92" height="6"/><g class="cls-3"><g class="cls-4"><g class="cls-5"><polygon class="cls-2" points="17.74 36.03 25.13 36.03 36 65.97 28.61 65.97 17.74 36.03"/></g></g></g><rect class="cls-2" x="6" y="12.06" width="12" height="6"/><rect class="cls-2" x="6" y="30" width="12" height="6"/><rect class="cls-2" y="18.06" width="6" height="11.94"/><rect class="cls-2" x="18" y="18.06" width="6" height="11.94"/><rect class="cls-2" x="65.92" y="41.92" width="6" height="24"/><rect class="cls-2" x="59.94" y="36" width="18.04" height="6"/><rect class="cls-2" x="77.98" y="30" width="12" height="6"/><rect class="cls-2" x="47.94" y="30.03" width="12" height="6"/><rect class="cls-2" x="41.97" y="12.06" width="6" height="17.94"/><rect class="cls-2" x="89.98" y="12.09" width="6" height="17.94"/><rect class="cls-2" x="47.94" width="6" height="12.06"/><rect class="cls-2" x="83.98" y="0.03" width="6" height="12.06"/><rect class="cls-2" x="47.94" width="12" height="6"/><rect class="cls-2" x="77.98" y="0.03" width="12" height="6"/></svg>