<svg id="Layer_1" data-name="Layer 1" xmlns="http://www.w3.org/2000/svg" xmlns:xlink="http://www.w3.org/1999/xlink" viewBox="0 0 78 65.88"><defs><style>.cls-1{fill:none;}.cls-2{fill:#f05168;}.cls-3{clip-path:url(#clip-path);}.cls-4{isolation:isolate;}.cls-5{clip-path:url(#clip-path-2);}.cls-6{clip-path:url(#clip-path-3);}.cls-7{clip-path:url(#clip-path-4);}.cls-8{clip-path:url(#clip-path-5);}.cls-9{clip-path:url(#clip-path-6);}</style><clipPath id="clip-path" transform="translate(-34.35 -38.88)"><rect class="cls-1" x="34.35" y="38.88" width="78" height="65.88"/></clipPath><clipPath id="clip-path-2" transform="translate(-34.35 -38.88)"><rect class="cls-1" x="36.85" y="85.83" width="25.28" height="19.93"/></clipPath><clipPath id="clip-path-3" transform="translate(-34.35 -38.88)"><rect class="cls-1" x="84.82" y="85.83" width="25.28" height="19.93"/></clipPath><clipPath id="clip-path-4" transform="translate(-34.35 -38.88)"><rect class="cls-1" x="48.84" y="85.83" width="25.28" height="19.93"/></clipPath><clipPath id="clip-path-5" transform="translate(-34.35 -38.88)"><rect class="cls-1" x="60.83" y="85.83" width="25.28" height="19.93"/></clipPath><clipPath id="clip-path-6" transform="translate(-34.35 -38.88)"><rect class="cls-1" x="72.83" y="85.83" width="25.28" height="19.93"/></clipPath></defs><title>31_Barcode</title><rect class="cls-2" width="6" height="65.88"/><rect class="cls-2" x="12" width="6" height="47.88"/><rect class="cls-2" x="24" width="6" height="47.88"/><rect class="cls-2" x="36" width="6" height="47.88"/><rect class="cls-2" x="48" width="6" height="47.88"/><rect class="cls-2" x="60" width="6" height="47.88"/><rect class="cls-2" x="72" width="6" height="65.88"/><g class="cls-3"><g class="cls-4"><g class="cls-5"><polygon class="cls-2" points="11.5 65.88 14.45 65.88 18.78 53.95 15.83 53.95 11.5 65.88"/></g></g><g class="cls-4"><g class="cls-6"><polygon class="cls-2" points="59.46 65.88 62.41 65.88 66.74 53.95 63.79 53.95 59.46 65.88"/></g></g><g class="cls-4"><g class="cls-7"><polygon class="cls-2" points="23.49 65.88 26.44 65.88 30.77 53.95 27.82 53.95 23.49 65.88"/></g></g><g class="cls-4"><g class="cls-8"><polygon class="cls-2" points="35.48 65.88 38.43 65.88 42.76 53.95 39.81 53.95 35.48 65.88"/></g></g><g class="cls-4"><g class="cls-9"><polygon class="cls-2" points="47.47 65.88 50.42 65.88 54.75 53.95 51.8 53.95 47.47 65.88"/></g></g></g></svg>