<svg id="Layer_1" data-name="Layer 1" xmlns="http://www.w3.org/2000/svg" xmlns:xlink="http://www.w3.org/1999/xlink" viewBox="0 0 60 90.22"><defs><style>.cls-1{fill:none;}.cls-2{fill:#f05168;}.cls-3{clip-path:url(#clip-path);}.cls-4{isolation:isolate;}.cls-5{clip-path:url(#clip-path-2);}.cls-6{clip-path:url(#clip-path-3);}</style><clipPath id="clip-path" transform="translate(-45 -29.89)"><rect class="cls-1" x="45" y="29.89" width="60" height="90.22"/></clipPath><clipPath id="clip-path-2" transform="translate(-45 -29.89)"><rect class="cls-1" x="73.94" y="66.09" width="32.06" height="32.68"/></clipPath><clipPath id="clip-path-3" transform="translate(-45 -29.89)"><rect class="cls-1" x="49.97" y="50.88" width="32.06" height="32.68"/></clipPath></defs><title>32_Watch</title><rect class="cls-2" y="29.82" width="6" height="30.28"/><rect class="cls-2" x="54" y="29.82" width="6" height="30.28"/><rect class="cls-2" x="6" y="24" width="48" height="6"/><rect class="cls-2" x="42.36" y="66.2" width="6" height="24.02"/><rect class="cls-2" x="12" y="60.2" width="6" height="24.02"/><rect class="cls-2" x="6" y="59.88" width="48" height="6"/><rect class="cls-2" x="12.07" y="72.29" width="35.93" height="6"/><rect class="cls-2" x="12.07" y="84.22" width="35.93" height="6"/><rect class="cls-2" x="12.14" width="6" height="24.03"/><rect class="cls-2" x="42.5" y="6" width="6" height="18.03"/><rect class="cls-2" x="12.5" y="11.93" width="35.93" height="6"/><rect class="cls-2" x="12.5" width="35.93" height="6"/><rect class="cls-2" x="42.06" y="41.94" width="6" height="6.06"/><rect class="cls-2" x="36.06" y="35.88" width="12" height="6.06"/><g class="cls-3"><g class="cls-4"><g class="cls-5"><polygon class="cls-2" points="29.94 45.2 29.94 51.15 54 59.88 54 53.94 29.94 45.2"/></g></g><g class="cls-4"><g class="cls-6"><polygon class="cls-2" points="5.97 30 5.97 35.94 30.03 44.67 30.03 38.73 5.97 30"/></g></g></g><rect class="cls-2" x="12" y="41.94" width="6" height="6.06"/><rect class="cls-2" x="12" y="48" width="12" height="6.06"/></svg>