<svg id="Layer_1" data-name="Layer 1" xmlns="http://www.w3.org/2000/svg" xmlns:xlink="http://www.w3.org/1999/xlink" viewBox="0 0 89.88 54.18"><defs><style>.cls-1{fill:none;}.cls-2{fill:#f05168;}.cls-3{clip-path:url(#clip-path);}.cls-4{isolation:isolate;}.cls-5{clip-path:url(#clip-path-2);}</style><clipPath id="clip-path" transform="translate(-30.06 -55.59)"><rect class="cls-1" x="30.06" y="55.59" width="89.88" height="54.18"/></clipPath><clipPath id="clip-path-2" transform="translate(-30.06 -55.59)"><rect class="cls-1" x="52.88" y="62.09" width="32.06" height="32.68"/></clipPath></defs><title>33_PaperPlane</title><rect class="cls-2" width="83.88" height="6"/><rect class="cls-2" width="6" height="12"/><rect class="cls-2" x="6" y="12" width="6" height="6.06"/><rect class="cls-2" x="12" y="18.06" width="6" height="6.06"/><rect class="cls-2" x="18" y="24.12" width="6" height="6.06"/><rect class="cls-2" x="24" y="30.18" width="6" height="23.94"/><rect class="cls-2" x="24" y="48.18" width="18" height="6"/><rect class="cls-2" x="42" y="42.12" width="6" height="6.06"/><rect class="cls-2" x="48" y="36.06" width="6" height="6.06"/><rect class="cls-2" x="54" y="30" width="6" height="6.06"/><rect class="cls-2" x="60" y="24.24" width="6" height="6.06"/><rect class="cls-2" x="66" y="18.18" width="6" height="6.06"/><rect class="cls-2" x="72" y="12.12" width="6" height="6.06"/><rect class="cls-2" x="78" y="6.06" width="6" height="6.06"/><rect class="cls-2" x="83.88" y="0.06" width="6" height="6.06"/><g class="cls-3"><g class="cls-4"><g class="cls-5"><polygon class="cls-2" points="53.88 15.5 53.88 21.44 29.82 30.18 29.82 24.24 53.88 15.5"/></g></g></g></svg>