<svg id="Layer_1" data-name="Layer 1" xmlns="http://www.w3.org/2000/svg" xmlns:xlink="http://www.w3.org/1999/xlink" viewBox="0 0 66 83.93"><defs><style>.cls-1{fill:none;}.cls-2{fill:#f05168;}.cls-3{clip-path:url(#clip-path);}.cls-4{isolation:isolate;}.cls-5{clip-path:url(#clip-path-2);}.cls-6{clip-path:url(#clip-path-4);}</style><clipPath id="clip-path" transform="translate(-40.82 -31.65)"><rect class="cls-1" x="40.82" y="31.65" width="66" height="83.93"/></clipPath><clipPath id="clip-path-2" transform="translate(-40.82 -31.65)"><rect class="cls-1" x="43.94" y="78.59" width="32.64" height="32"/></clipPath><clipPath id="clip-path-4" transform="translate(-40.82 -31.65)"><rect class="cls-1" x="71.19" y="78.59" width="32.64" height="32"/></clipPath></defs><title>34_Location</title><rect class="cls-2" x="6" y="42.06" width="6" height="11.88"/><rect class="cls-2" x="54" y="41.88" width="6" height="12.06"/><rect class="cls-2" y="24" width="6" height="17.88"/><rect class="cls-2" x="60" y="24" width="6" height="18.06"/><rect class="cls-2" x="24" y="18" width="17.97" height="6"/><rect class="cls-2" x="18.06" y="24" width="6" height="18.06"/><rect class="cls-2" x="24.06" y="42.06" width="17.95" height="6"/><rect class="cls-2" x="6" y="11.94" width="6" height="12.06"/><rect class="cls-2" x="54" y="11.94" width="6" height="12.06"/><rect class="cls-2" x="12" y="5.94" width="12.06" height="6"/><rect class="cls-2" x="41.97" y="5.94" width="12.06" height="6"/><rect class="cls-2" x="24" width="18.01" height="6"/><rect class="cls-2" x="41.97" y="23.82" width="6" height="18.06"/><g class="cls-3"><g class="cls-4"><g class="cls-5"><polygon class="cls-2" points="26.75 77.94 20.82 77.94 12.11 53.94 18.04 53.94 26.75 77.94"/></g></g></g><rect class="cls-2" x="30" y="77.93" width="6" height="6"/><g class="cls-3"><g class="cls-4"><g class="cls-6"><polygon class="cls-2" points="39.36 77.94 45.29 77.94 54 53.94 48.08 53.94 39.36 77.94"/></g></g></g></svg>