<svg id="Layer_1" data-name="Layer 1" xmlns="http://www.w3.org/2000/svg" xmlns:xlink="http://www.w3.org/1999/xlink" viewBox="0 0 89.9 59.88"><defs><style>.cls-1{fill:none;}.cls-2{fill:#f05168;}.cls-3{clip-path:url(#clip-path);}.cls-4{isolation:isolate;}.cls-5{clip-path:url(#clip-path-2);}.cls-6{clip-path:url(#clip-path-3);}</style><clipPath id="clip-path" transform="translate(-28.85 -42.41)"><rect class="cls-1" x="28.85" y="42.41" width="89.9" height="59.88"/></clipPath><clipPath id="clip-path-2" transform="translate(-28.85 -42.41)"><rect class="cls-1" x="46.67" y="65.34" width="28.96" height="25.97"/></clipPath><clipPath id="clip-path-3" transform="translate(-28.85 -42.41)"><rect class="cls-1" x="56.55" y="59.14" width="32.82" height="32.3"/></clipPath></defs><title>35_Cloud</title><rect class="cls-2" x="12" y="53.88" width="66.18" height="6"/><rect class="cls-2" x="6" y="47.94" width="6" height="6"/><rect class="cls-2" x="77.9" y="47.94" width="6" height="6"/><rect class="cls-2" y="35.88" width="6" height="12.06"/><rect class="cls-2" x="83.9" y="35.88" width="6" height="12.06"/><rect class="cls-2" x="77.9" y="29.88" width="6" height="6"/><rect class="cls-2" x="6" y="29.88" width="6" height="6"/><rect class="cls-2" x="12" y="23.98" width="11.98" height="6"/><rect class="cls-2" x="65.92" y="23.98" width="11.98" height="6"/><rect class="cls-2" x="17.98" y="12" width="6" height="11.98"/><rect class="cls-2" x="65.92" y="12" width="6" height="11.98"/><rect class="cls-2" x="23.98" y="6" width="6" height="6"/><rect class="cls-2" x="59.92" y="6.13" width="6" height="6"/><rect class="cls-2" x="29.98" width="29.94" height="6"/><g class="cls-3"><g class="cls-4"><g class="cls-5"><polygon class="cls-2" points="37.78 47.91 33.34 47.91 26.82 29.93 31.26 29.93 37.78 47.91"/></g></g><g class="cls-4"><g class="cls-6"><polygon class="cls-2" points="51.52 48.03 45.52 48.03 36.7 23.73 42.7 23.73 51.52 48.03"/></g></g></g></svg>