<svg id="Layer_1" data-name="Layer 1" xmlns="http://www.w3.org/2000/svg" xmlns:xlink="http://www.w3.org/1999/xlink" viewBox="0 0 54 78.21"><defs><style>.cls-1{fill:none;}.cls-2{fill:#f05168;}.cls-3{clip-path:url(#clip-path);}.cls-4{isolation:isolate;}.cls-5{clip-path:url(#clip-path-2);}</style><clipPath id="clip-path" transform="translate(-48 -35.9)"><rect class="cls-1" x="48" y="35.9" width="54" height="78.21"/></clipPath><clipPath id="clip-path-2" transform="translate(-48 -35.9)"><rect class="cls-1" x="61.45" y="81.38" width="27.1" height="22.91"/></clipPath></defs><title>36_Lock</title><rect class="cls-2" x="6" y="72.21" width="42" height="6"/><rect class="cls-2" y="24.21" width="6" height="48"/><rect class="cls-2" x="48" y="24.21" width="6" height="48"/><rect class="cls-2" x="6" y="24.21" width="42" height="6.03"/><rect class="cls-2" x="18" width="18.3" height="6"/><rect class="cls-2" x="12" y="6.09" width="6" height="6.06"/><rect class="cls-2" x="36" y="6.03" width="6" height="6.06"/><rect class="cls-2" x="6" y="12.18" width="6" height="17.92"/><rect class="cls-2" x="42" y="12.06" width="6" height="18.18"/><rect class="cls-2" x="18" y="36.06" width="18" height="11.93"/><g class="cls-3"><g class="cls-4"><g class="cls-5"><polygon class="cls-2" points="22.45 67.4 26.14 67.4 31.55 52.48 27.87 52.48 22.45 67.4"/></g></g></g></svg>