<svg id="Layer_1" data-name="Layer 1" xmlns="http://www.w3.org/2000/svg" xmlns:xlink="http://www.w3.org/1999/xlink" viewBox="0 0 61.31 66.24"><defs><style>.cls-1{fill:none;}.cls-2{fill:#f05168;}.cls-3{clip-path:url(#clip-path);}.cls-4{isolation:isolate;}.cls-5{clip-path:url(#clip-path-2);}.cls-6{clip-path:url(#clip-path-3);}.cls-7{clip-path:url(#clip-path-4);}</style><clipPath id="clip-path" transform="translate(-41.32 -40.63)"><rect class="cls-1" x="41.32" y="40.63" width="61.31" height="66.24"/></clipPath><clipPath id="clip-path-2" transform="translate(-41.32 -40.63)"><rect class="cls-1" x="82.64" y="33.78" width="28.98" height="26"/></clipPath><clipPath id="clip-path-3" transform="translate(-41.32 -40.63)"><rect class="cls-1" x="82.64" y="57.72" width="28.98" height="26"/></clipPath><clipPath id="clip-path-4" transform="translate(-41.32 -40.63)"><rect class="cls-1" x="82.64" y="81.87" width="28.98" height="26"/></clipPath></defs><title>37_List</title><rect class="cls-2" x="24" y="6.18" width="18.25" height="6"/><rect class="cls-2" x="24" y="30.12" width="18.25" height="6"/><rect class="cls-2" x="24" y="54.24" width="18.25" height="6"/><rect class="cls-2" x="6" y="24.18" width="6" height="6"/><rect class="cls-2" x="6" y="36.18" width="6" height="6"/><rect class="cls-2" x="12" y="30.18" width="6" height="6"/><rect class="cls-2" y="30.18" width="6" height="6"/><rect class="cls-2" x="6" y="48.24" width="6" height="6"/><rect class="cls-2" x="6" y="60.24" width="6" height="6"/><rect class="cls-2" x="12" y="54.24" width="6" height="6"/><rect class="cls-2" y="54.24" width="6" height="6"/><g class="cls-3"><g class="cls-4"><g class="cls-5"><polygon class="cls-2" points="50.33 18.14 54.77 18.14 61.31 0.14 56.86 0.14 50.33 18.14"/></g></g><g class="cls-4"><g class="cls-6"><polygon class="cls-2" points="50.33 42.09 54.77 42.09 61.31 24.08 56.86 24.08 50.33 42.09"/></g></g><g class="cls-4"><g class="cls-7"><polygon class="cls-2" points="50.33 66.24 54.77 66.24 61.31 48.24 56.86 48.24 50.33 66.24"/></g></g></g><rect class="cls-2" x="6" width="6" height="6"/><rect class="cls-2" x="6" y="12" width="6" height="6"/><rect class="cls-2" x="12" y="6" width="6" height="6"/><rect class="cls-2" y="6" width="6" height="6"/></svg>