<svg id="Layer_1" data-name="Layer 1" xmlns="http://www.w3.org/2000/svg" xmlns:xlink="http://www.w3.org/1999/xlink" viewBox="0 0 96 84.12"><defs><style>.cls-1{fill:none;}.cls-2{fill:#f05168;}.cls-3{clip-path:url(#clip-path);}.cls-4{isolation:isolate;}.cls-5{clip-path:url(#clip-path-2);}</style><clipPath id="clip-path" transform="translate(-25.82 -34.71)"><rect class="cls-1" x="25.82" y="34.71" width="96" height="84.12"/></clipPath><clipPath id="clip-path-2" transform="translate(-25.82 -34.71)"><rect class="cls-1" x="52.34" y="57.81" width="32.6" height="31.94"/></clipPath></defs><title>39_Cart</title><rect class="cls-2" y="18.12" width="72" height="6"/><rect class="cls-2" x="72" y="12.12" width="6" height="66"/><rect class="cls-2" x="78" y="6.06" width="6" height="6.06"/><rect class="cls-2" x="84" width="12" height="6.06"/><rect class="cls-2" y="18.12" width="6" height="24"/><rect class="cls-2" x="6" y="42.12" width="6" height="12.24"/><rect class="cls-2" x="12" y="54.12" width="6" height="6.06"/><rect class="cls-2" x="18" y="60.18" width="6" height="17.94"/><rect class="cls-2" x="18" y="60.18" width="18" height="6"/><rect class="cls-2" x="60" y="60.18" width="18" height="6"/><rect class="cls-2" x="24" y="78.12" width="12" height="6"/><rect class="cls-2" x="36" y="66.18" width="6" height="12"/><rect class="cls-2" x="36" y="66.18" width="24" height="6"/><rect class="cls-2" x="54" y="66.18" width="6" height="12"/><rect class="cls-2" x="60" y="78.12" width="12" height="6"/><g class="cls-3"><g class="cls-4"><g class="cls-5"><polygon class="cls-2" points="35.52 54.04 41.43 54.04 50.12 30.1 44.21 30.1 35.52 54.04"/></g></g></g></svg>