<svg id="Layer_1" data-name="Layer 1" xmlns="http://www.w3.org/2000/svg" xmlns:xlink="http://www.w3.org/1999/xlink" viewBox="0 0 66.02 107.85"><defs><style>.cls-1{fill:none;}.cls-2{fill:#f05168;}.cls-3{clip-path:url(#clip-path);}.cls-4{isolation:isolate;}.cls-5{clip-path:url(#clip-path-2);}.cls-6{clip-path:url(#clip-path-3);}.cls-7{clip-path:url(#clip-path-4);}</style><clipPath id="clip-path" transform="translate(-40.82 -19.84)"><rect class="cls-1" x="40.82" y="19.84" width="66.02" height="107.85"/></clipPath><clipPath id="clip-path-2" transform="translate(-40.82 -19.84)"><rect class="cls-1" x="58.58" y="102.98" width="28.81" height="25.72"/></clipPath><clipPath id="clip-path-3" transform="translate(-40.82 -19.84)"><rect class="cls-1" x="73.94" y="102.98" width="25.24" height="19.87"/></clipPath><clipPath id="clip-path-4" transform="translate(-40.82 -19.84)"><rect class="cls-1" x="48.62" y="102.98" width="25.24" height="19.87"/></clipPath></defs><title>40_Rocket</title><rect class="cls-2" x="12" y="30.08" width="6" height="36.04"/><rect class="cls-2" x="48.02" y="30.08" width="6" height="36.04"/><rect class="cls-2" x="18" y="12.02" width="6" height="18.06"/><rect class="cls-2" x="42.02" y="12.02" width="6" height="18.06"/><rect class="cls-2" x="24" y="5.96" width="6" height="6.06"/><rect class="cls-2" x="36" y="5.96" width="6" height="6.06"/><rect class="cls-2" x="30" width="6" height="6.18"/><rect class="cls-2" x="54.02" y="66.05" width="6" height="6.06"/><rect class="cls-2" x="6" y="78.17" width="18" height="6.06"/><rect class="cls-2" y="72.11" width="6" height="18.03"/><rect class="cls-2" x="60.02" y="72.11" width="6" height="18.03"/><rect class="cls-2" x="6" y="66.14" width="6" height="6.06"/><rect class="cls-2" x="18" y="72.11" width="30.24" height="6.06"/><rect class="cls-2" x="42.24" y="78.17" width="17.73" height="6.06"/><rect class="cls-2" x="30.01" y="30.08" width="6" height="6.06"/><rect class="cls-2" x="30.01" y="42.12" width="6" height="6.06"/><rect class="cls-2" x="24.01" y="36.14" width="6" height="6.06"/><rect class="cls-2" x="36" y="36.14" width="6" height="6.06"/><g class="cls-3"><g class="cls-4"><g class="cls-5"><polygon class="cls-2" points="26.76 107.85 31.13 107.85 37.57 90.14 33.19 90.14 26.76 107.85"/></g></g><g class="cls-4"><g class="cls-6"><polygon class="cls-2" points="42.12 102.01 45.05 102.01 49.36 90.14 46.43 90.14 42.12 102.01"/></g></g><g class="cls-4"><g class="cls-7"><polygon class="cls-2" points="16.8 102.01 19.73 102.01 24.04 90.14 21.11 90.14 16.8 102.01"/></g></g></g></svg>