<svg id="Layer_1" data-name="Layer 1" xmlns="http://www.w3.org/2000/svg" xmlns:xlink="http://www.w3.org/1999/xlink" viewBox="0 0 77.97 90.14"><defs><style>.cls-1{fill:none;}.cls-2{fill:#f05168;}.cls-3{clip-path:url(#clip-path);}.cls-4{isolation:isolate;}.cls-5{clip-path:url(#clip-path-2);}.cls-6{clip-path:url(#clip-path-3);}.cls-7{clip-path:url(#clip-path-4);}.cls-8{clip-path:url(#clip-path-5);}</style><clipPath id="clip-path" transform="translate(-32.78 -28.57)"><rect class="cls-1" x="32.78" y="28.57" width="77.97" height="90.14"/></clipPath><clipPath id="clip-path-2" transform="translate(-32.78 -28.57)"><rect class="cls-1" x="54.78" y="75.91" width="32.48" height="31.74"/></clipPath><clipPath id="clip-path-3" transform="translate(-32.78 -28.57)"><rect class="cls-1" x="49.98" y="69.79" width="25.47" height="20.24"/></clipPath><clipPath id="clip-path-4" transform="translate(-32.78 -28.57)"><rect class="cls-1" x="70.32" y="87.41" width="25.47" height="20.24"/></clipPath><clipPath id="clip-path-5" transform="translate(-32.78 -28.57)"><rect class="cls-1" x="43.94" y="91.32" width="23.08" height="16.32"/></clipPath></defs><title>41_Flask</title><rect class="cls-2" x="30" width="17.95" height="6"/><rect class="cls-2" x="24" y="6" width="6" height="6"/><rect class="cls-2" x="47.94" y="6" width="6" height="6"/><rect class="cls-2" x="30" y="12" width="17.95" height="6"/><rect class="cls-2" x="30" y="18" width="6" height="18"/><rect class="cls-2" x="41.95" y="17.99" width="6" height="18"/><rect class="cls-2" x="18" y="42.14" width="6" height="12"/><rect class="cls-2" x="12" y="54.14" width="6" height="12"/><rect class="cls-2" x="53.97" y="42.14" width="6" height="12"/><rect class="cls-2" x="59.97" y="54.14" width="6" height="12"/><rect class="cls-2" x="6" y="66.14" width="6" height="12"/><rect class="cls-2" x="65.97" y="66.14" width="6" height="12"/><rect class="cls-2" y="78.14" width="6" height="6"/><rect class="cls-2" x="71.97" y="78.14" width="6" height="6"/><rect class="cls-2" x="6" y="84.14" width="66.18" height="6"/><rect class="cls-2" x="24" y="36.08" width="6" height="6.06"/><rect class="cls-2" x="47.94" y="35.99" width="6" height="6.06"/><g class="cls-3"><g class="cls-4"><g class="cls-5"><polygon class="cls-2" points="31 78.08 36.86 78.08 45.48 54.34 39.62 54.34 31 78.08"/></g></g><g class="cls-4"><g class="cls-6"><polygon class="cls-2" points="26.2 60.46 29.22 60.46 33.67 48.22 30.64 48.22 26.2 60.46"/></g></g><g class="cls-4"><g class="cls-7"><polygon class="cls-2" points="46.53 78.08 49.56 78.08 54 65.84 50.98 65.84 46.53 78.08"/></g></g><g class="cls-4"><g class="cls-8"><polygon class="cls-2" points="20.16 78.08 22.21 78.08 25.24 69.76 23.18 69.76 20.16 78.08"/></g></g></g></svg>