<svg id="Layer_1" data-name="Layer 1" xmlns="http://www.w3.org/2000/svg" xmlns:xlink="http://www.w3.org/1999/xlink" viewBox="0 0 77.98 78.05"><defs><style>.cls-1{fill:none;}.cls-2{fill:#f05168;}.cls-3{clip-path:url(#clip-path);}.cls-4{isolation:isolate;}.cls-5{clip-path:url(#clip-path-2);}</style><clipPath id="clip-path" transform="translate(-36.01 -34.62)"><rect class="cls-1" x="36.01" y="34.62" width="77.98" height="78.05"/></clipPath><clipPath id="clip-path-2" transform="translate(-36.01 -34.62)"><rect class="cls-1" x="60.34" y="57.59" width="28.99" height="26.01"/></clipPath></defs><title>42_Target</title><rect class="cls-2" x="11.98" y="48.01" width="6" height="12"/><rect class="cls-2" x="60.02" y="47.99" width="6" height="12.02"/><rect class="cls-2" x="6" y="29.98" width="5.95" height="18.06"/><rect class="cls-2" x="66.02" y="29.98" width="6" height="18.01"/><rect class="cls-2" x="11.95" y="17.99" width="6" height="11.98"/><rect class="cls-2" x="60.02" y="18" width="6" height="11.98"/><rect class="cls-2" x="17.95" y="11.99" width="12" height="6"/><rect class="cls-2" x="47.96" y="11.99" width="12.06" height="6"/><rect class="cls-2" x="29.95" y="5.99" width="18.01" height="6"/><rect class="cls-2" x="17.98" y="60.01" width="11.98" height="6"/><rect class="cls-2" x="47.96" y="60.01" width="12.07" height="6"/><rect class="cls-2" x="29.96" y="66.01" width="18" height="6"/><rect class="cls-2" x="35.97" width="6" height="24.02"/><rect class="cls-2" x="53.96" y="36" width="24.03" height="6"/><rect class="cls-2" x="35.97" y="54.02" width="6" height="24.02"/><rect class="cls-2" y="36.05" width="24.02" height="6"/><g class="cls-3"><g class="cls-4"><g class="cls-5"><polygon class="cls-2" points="33.34 47.99 37.78 47.99 44.32 29.98 39.87 29.98 33.34 47.99"/></g></g></g></svg>