<svg id="Layer_1" data-name="Layer 1" xmlns="http://www.w3.org/2000/svg" xmlns:xlink="http://www.w3.org/1999/xlink" viewBox="0 0 72.08 66.01"><defs><style>.cls-1{fill:none;}.cls-2{fill:#f05168;}.cls-3{clip-path:url(#clip-path);}.cls-4{isolation:isolate;}.cls-5{clip-path:url(#clip-path-2);}</style><clipPath id="clip-path" transform="translate(-36.66 -44.73)"><rect class="cls-1" x="36.66" y="44.73" width="72.08" height="66.01"/></clipPath><clipPath id="clip-path-2" transform="translate(-36.66 -44.73)"><rect class="cls-1" x="76.02" y="85.73" width="28.99" height="26.01"/></clipPath></defs><title>43_Faucet</title><rect class="cls-2" x="48.08" width="18" height="6"/><rect class="cls-2" x="48.08" y="24.01" width="18" height="6"/><rect class="cls-2" x="18.08" y="6" width="24" height="6"/><rect class="cls-2" x="66.08" y="6" width="6" height="18.01"/><rect class="cls-2" x="12.09" y="12" width="6" height="6"/><rect class="cls-2" x="24.08" y="18" width="18" height="6"/><rect class="cls-2" x="6.09" y="18" width="6" height="36.04"/><rect class="cls-2" x="18.08" y="18" width="6" height="36.04"/><rect class="cls-2" x="66.08" y="36" width="6" height="6"/><rect class="cls-2" x="42.08" y="36" width="6" height="6"/><rect class="cls-2" x="48.08" y="30" width="6" height="6"/><rect class="cls-2" x="60.08" y="30" width="6" height="6"/><rect class="cls-2" x="48.08" y="42" width="6" height="6"/><rect class="cls-2" x="60.08" y="42" width="6" height="6"/><rect class="cls-2" x="6.09" y="54.04" width="12.24" height="6"/><rect class="cls-2" y="60.01" width="30.06" height="6"/><rect class="cls-2" x="42.08" y="6" width="6" height="18"/><g class="cls-3"><g class="cls-4"><g class="cls-5"><polygon class="cls-2" points="48.36 66.01 52.81 66.01 59.34 48 54.9 48 48.36 66.01"/></g></g></g></svg>