<svg id="Layer_1" data-name="Layer 1" xmlns="http://www.w3.org/2000/svg" xmlns:xlink="http://www.w3.org/1999/xlink" viewBox="0 0 72 66.04"><defs><style>.cls-1{fill:none;}.cls-2{fill:#f05168;}.cls-3{clip-path:url(#clip-path);}.cls-4{isolation:isolate;}.cls-5{clip-path:url(#clip-path-2);}</style><clipPath id="clip-path" transform="translate(-34.32 -45.22)"><rect class="cls-1" x="34.32" y="45.22" width="72" height="66.04"/></clipPath><clipPath id="clip-path-2" transform="translate(-34.32 -45.22)"><rect class="cls-1" x="81.32" y="79.77" width="26.01" height="28.99"/></clipPath></defs><title>43_Faucet_2</title><rect class="cls-2" x="41.99" y="6" width="6" height="18"/><rect class="cls-2" x="66" y="6" width="6" height="18"/><rect class="cls-2" x="18" y="6" width="24" height="6"/><rect class="cls-2" x="47.99" width="18.01" height="6"/><rect class="cls-2" x="11.99" y="12" width="6" height="6"/><rect class="cls-2" x="24" y="18" width="18" height="6"/><rect class="cls-2" x="5.99" y="18" width="6" height="36.04"/><rect class="cls-2" x="18" y="18" width="6" height="36.04"/><rect class="cls-2" x="54" y="30.04" width="6" height="12"/><rect class="cls-2" x="5.99" y="54.04" width="12.24" height="6"/><rect class="cls-2" y="60.04" width="30.28" height="6"/><rect class="cls-2" x="47.99" y="24" width="18.01" height="6"/><g class="cls-3"><g class="cls-4"><g class="cls-5"><polygon class="cls-2" points="48 43.55 48 48 66.01 54.54 66.01 50.09 48 43.55"/></g></g></g></svg>