<svg id="Layer_1" data-name="Layer 1" xmlns="http://www.w3.org/2000/svg" xmlns:xlink="http://www.w3.org/1999/xlink" viewBox="0 0 53.87 78.04"><defs><style>.cls-1{fill:none;}.cls-2{fill:#f05168;}.cls-3{clip-path:url(#clip-path);}.cls-4{isolation:isolate;}.cls-5{clip-path:url(#clip-path-2);}</style><clipPath id="clip-path" transform="translate(-48.07 -34.65)"><rect class="cls-1" x="48.07" y="34.65" width="53.87" height="78.04"/></clipPath><clipPath id="clip-path-2" transform="translate(-48.07 -34.65)"><rect class="cls-1" x="45.05" y="80.13" width="30.81" height="29"/></clipPath></defs><title>45_Light</title><rect class="cls-2" x="23.84" width="30.02" height="6"/><rect class="cls-2" x="17.86" y="6" width="6" height="6"/><rect class="cls-2" x="11.86" y="12" width="6" height="6"/><rect class="cls-2" x="5.86" y="18" width="6" height="6"/><rect class="cls-2" y="24.01" width="6" height="18.03"/><rect class="cls-2" x="6" y="36.04" width="17.86" height="6"/><rect class="cls-2" x="47.87" y="6" width="6" height="6"/><rect class="cls-2" x="41.87" y="12.01" width="6" height="6"/><rect class="cls-2" x="35.87" y="18.01" width="6" height="6"/><rect class="cls-2" x="29.92" y="23.98" width="18.03" height="6"/><rect class="cls-2" x="41.96" y="29.98" width="6" height="18.06"/><rect class="cls-2" x="35.96" y="48.04" width="6" height="6"/><rect class="cls-2" x="29.96" y="54.04" width="6" height="6"/><rect class="cls-2" x="24.02" y="60.04" width="6" height="6"/><rect class="cls-2" x="18.02" y="66.04" width="6" height="6"/><rect class="cls-2" x="5.86" y="72.04" width="12.06" height="6"/><g class="cls-3"><g class="cls-4"><g class="cls-5"><polygon class="cls-2" points="18.79 46.48 13.6 46.48 5.98 67.48 11.16 67.48 18.79 46.48"/></g></g></g></svg>