<svg id="Layer_1" data-name="Layer 1" xmlns="http://www.w3.org/2000/svg" xmlns:xlink="http://www.w3.org/1999/xlink" viewBox="0 0 64.9 12.5"><defs><style>.cls-1{fill:none;}.cls-2{clip-path:url(#clip-path);}.cls-3{isolation:isolate;}.cls-4{clip-path:url(#clip-path-2);}.cls-5{fill:#f05168;}</style><clipPath id="clip-path" transform="translate(-42.55 -68.75)"><rect class="cls-1" x="42.55" y="68.75" width="64.9" height="12.5"/></clipPath><clipPath id="clip-path-2" transform="translate(-42.55 -68.75)"><rect class="cls-1" x="90.05" y="61.75" width="26.39" height="20.5"/></clipPath></defs><title>46_NEXT</title><g class="cls-2"><g class="cls-3"><g class="cls-4"><polygon class="cls-5" points="56.5 12.5 60.3 12.5 64.9 0 61.09 0 56.5 12.5"/></g></g></g><polygon class="cls-5" points="0 0 0 12.5 5 12.5 5 2.5 7.5 2.5 7.5 12.5 12.5 12.5 12.5 1.25 11.25 1.25 11.25 0 0 0"/><polygon class="cls-5" points="15.92 0 15.92 1.25 14.67 1.25 14.67 11.25 14.67 12.5 15.92 12.5 27.17 12.5 27.17 10 19.67 10 19.67 7.5 23.42 7.5 23.42 5 19.67 5 19.67 2.5 27.17 2.5 27.17 0 15.92 0"/><polygon class="cls-5" points="44 0 44 2.5 47.75 2.5 47.75 12.5 52.75 12.5 52.75 2.5 56.5 2.5 56.5 0 44 0"/><polygon class="cls-5" points="36.83 0 36.83 5 34.33 5 34.33 0 29.33 0 29.33 5 30.58 5 30.58 7.5 29.33 7.5 29.33 12.5 34.33 12.5 34.33 7.5 36.83 7.5 36.83 12.5 41.83 12.5 41.83 7.5 40.58 7.5 40.58 5 41.83 5 41.83 0 36.83 0"/></svg>