<svg id="Layer_1" data-name="Layer 1" xmlns="http://www.w3.org/2000/svg" viewBox="0 0 11.01 11.01"><defs><style>.cls-1{fill:#f05168;}</style></defs><title>48_Instagram</title><rect class="cls-1" x="1.57" y="10.22" width="7.86" height="0.79"/><rect class="cls-1" y="1.57" width="0.79" height="7.86"/><rect class="cls-1" x="10.22" y="1.57" width="0.79" height="7.86"/><rect class="cls-1" x="3.93" y="2.35" width="3.14" height="0.79"/><rect class="cls-1" x="3.14" y="3.15" width="0.79" height="0.79"/><rect class="cls-1" x="7.07" y="3.15" width="0.79" height="0.79"/><rect class="cls-1" x="2.36" y="3.94" width="0.79" height="3.11"/><rect class="cls-1" x="7.86" y="3.94" width="0.79" height="3.11"/><rect class="cls-1" x="3.93" y="7.86" width="3.14" height="0.79"/><rect class="cls-1" x="7.07" y="7.05" width="0.79" height="0.79"/><rect class="cls-1" x="3.14" y="7.05" width="0.79" height="0.79"/><polygon class="cls-1" points="4.5 7.04 5.27 7.04 6.41 3.9 5.63 3.9 4.5 7.04"/><rect class="cls-1" x="1.57" width="7.86" height="0.79"/><rect class="cls-1" x="9.43" y="0.79" width="0.79" height="0.79"/><rect class="cls-1" x="0.79" y="0.79" width="0.79" height="0.79"/><rect class="cls-1" x="9.43" y="9.43" width="0.79" height="0.79"/><rect class="cls-1" x="0.79" y="9.43" width="0.79" height="0.79"/><rect class="cls-1" x="7.86" y="1.56" width="0.79" height="0.79"/></svg>