<svg id="Layer_1" data-name="Layer 1" xmlns="http://www.w3.org/2000/svg" xmlns:xlink="http://www.w3.org/1999/xlink" viewBox="0 0 9.03 10"><defs><style>.cls-1{fill:none;}.cls-2{fill:#e13e52;}.cls-3{clip-path:url(#clip-path);}.cls-4{fill:#fff;}</style><clipPath id="clip-path"><rect class="cls-1" x="0.71" y="2.73" width="7.62" height="5.09"/></clipPath></defs><title>50contactbutton</title><rect class="cls-2" width="9.03" height="10"/><g class="cls-3"><path class="cls-4" d="M7.82,2.73H.71v.56H7.82Z"/><path class="cls-4" d="M1.22,2.73H.71V3.86h.51Z"/><path class="cls-4" d="M1.73,3.86H1.22v.57h.51Z"/><path class="cls-4" d="M2.24,4.43H1.73V5h.51Z"/><path class="cls-4" d="M2.75,5H2.24v.57h.51Z"/><path class="cls-4" d="M3.26,5.56H2.75V7.81h.51Z"/><path class="cls-4" d="M4.27,7.25H2.75v.57H4.27Z"/><path class="cls-4" d="M4.78,6.68H4.27v.57h.51Z"/><path class="cls-4" d="M5.29,6.12H4.78v.56h.51Z"/><path class="cls-4" d="M5.8,5.55H5.29v.57H5.8Z"/><path class="cls-4" d="M6.31,5H5.8v.56h.51Z"/><path class="cls-4" d="M6.82,4.44H6.31V5h.51Z"/><path class="cls-4" d="M7.33,3.87H6.82v.57h.51Z"/><path class="cls-4" d="M7.83,3.3h-.5v.57h.5Z"/><path class="cls-4" d="M8.33,2.74H7.82v.57h.51Z"/><path class="cls-4" d="M5.28,4.19v.55l-2,.82V5Z"/></g></svg>