<?xml version="1.0" encoding="utf-8"?>
<!-- Generator: Adobe Illustrator 24.0.1, SVG Export Plug-In . SVG Version: 6.00 Build 0)  -->
<svg version="1.1" id="Layer_1" xmlns="http://www.w3.org/2000/svg" xmlns:xlink="http://www.w3.org/1999/xlink" x="0px" y="0px"
	 viewBox="0 0 10 10" style="enable-background:new 0 0 10 10;" xml:space="preserve">
<style type="text/css">
	.st0{fill:#E13E52;}
	.st1{clip-path:url(#SVGID_2_);}
	.st2{fill:#FFFFFF;}
</style>
<rect x="-24.27" y="-27.23" class="st0" width="57.81" height="64"/>
<g>
	<defs>
		<rect id="SVGID_1_" x="-19.76" y="-9.23" width="48.22" height="32.18"/>
	</defs>
	<clipPath id="SVGID_2_">
		<use xlink:href="#SVGID_1_"  style="overflow:visible;"/>
	</clipPath>
	<g class="st1">
		<path class="st2" d="M25.24-9.23h-45v3.56h45V-9.23z"/>
		<path class="st2" d="M-16.54-9.23h-3.22v7.13h3.22V-9.23z"/>
		<path class="st2" d="M-13.32-2.11h-3.22v3.6h3.22V-2.11z"/>
		<path class="st2" d="M-10.1,1.49h-3.22v3.6h3.22V1.49z"/>
		<path class="st2" d="M-6.88,5.09h-3.22v3.6h3.22V5.09z"/>
		<path class="st2" d="M-3.66,8.69h-3.22v14.22h3.22V8.69z"/>
		<path class="st2" d="M2.77,19.38h-9.66v3.56h9.66V19.38z"/>
		<path class="st2" d="M5.99,15.78H2.77v3.6h3.22V15.78z"/>
		<path class="st2" d="M9.21,12.18H5.99v3.6h3.22V12.18z"/>
		<path class="st2" d="M12.43,8.58H9.21v3.6h3.22V8.58z"/>
		<path class="st2" d="M15.65,5.16h-3.22v3.6h3.22V5.16z"/>
		<path class="st2" d="M18.87,1.56h-3.22v3.6h3.22V1.56z"/>
		<path class="st2" d="M22.09-2.03h-3.22v3.6h3.22V-2.03z"/>
		<path class="st2" d="M25.31-5.63h-3.22v3.6h3.22V-5.63z"/>
		<path class="st2" d="M28.46-9.2h-3.22v3.6h3.22V-9.2z"/>
		<path class="st2" d="M9.15-0.03V3.5L-3.76,8.69V5.16L9.15-0.03z"/>
	</g>
</g>
</svg>
