<svg id="Layer_1" data-name="Layer 1" xmlns="http://www.w3.org/2000/svg" xmlns:xlink="http://www.w3.org/1999/xlink" viewBox="0 0 66 90.03"><defs><style>.cls-1{fill:#fff;}.cls-2{clip-path:url(#clip-path);}.cls-3{clip-path:url(#clip-path-2);}.cls-4{clip-path:url(#clip-path-3);}</style><clipPath id="clip-path"><rect class="cls-1" width="66" height="90.03"/></clipPath><clipPath id="clip-path-2"><rect class="cls-1" x="33" y="17.08" width="28.98" height="26"/></clipPath><clipPath id="clip-path-3"><rect class="cls-1" x="3.9" y="17.08" width="28.98" height="26"/></clipPath></defs><title>56.whitebulb</title><rect class="cls-1" x="12" width="42" height="6"/><rect class="cls-1" x="6" y="6" width="6" height="11.88"/><rect class="cls-1" x="54" y="6" width="6" height="12.03"/><rect class="cls-1" y="18.08" width="6" height="23.92"/><rect class="cls-1" x="60" y="18.06" width="6" height="23.92"/><rect class="cls-1" x="54.06" y="42" width="6" height="12"/><rect class="cls-1" x="6.06" y="41.97" width="6" height="12"/><rect class="cls-1" x="42" y="60" width="6" height="24.02"/><rect class="cls-1" x="18.06" y="60.05" width="6" height="24.02"/><rect class="cls-1" x="23.88" y="84.03" width="18.12" height="6"/><rect class="cls-1" x="23.88" y="60.05" width="18.12" height="5.95"/><rect class="cls-1" x="23.88" y="72.06" width="18.12" height="6"/><rect class="cls-1" x="12.06" y="54" width="6" height="6"/><rect class="cls-1" x="48.06" y="53.97" width="6" height="6"/><rect class="cls-1" width="66" height="90.03"/><g class="cls-2"><rect class="cls-1" x="33" y="17.08" width="28.98" height="26"/><g class="cls-3"><polygon class="cls-1" points="42 42.09 46.45 42.09 52.98 24.09 48.54 24.09 42 42.09"/></g><rect class="cls-1" x="3.9" y="17.08" width="28.98" height="26"/><g class="cls-4"><polygon class="cls-1" points="23.88 42.09 19.43 42.09 12.9 24.09 17.34 24.09 23.88 42.09"/></g></g><rect class="cls-1" x="24" y="42.09" width="6" height="17.96"/><rect class="cls-1" x="36.06" y="42.09" width="6" height="17.96"/></svg>