<svg id="Layer_1" data-name="Layer 1" xmlns="http://www.w3.org/2000/svg" xmlns:xlink="http://www.w3.org/1999/xlink" viewBox="0 0 66 90.03"><defs><style>.cls-1{fill:none;}.cls-2{clip-path:url(#clip-path);}.cls-3{fill:#fff;}</style><clipPath id="clip-path"><rect class="cls-1" width="66" height="90.03"/></clipPath></defs><title>56.whitebulb</title><g class="cls-2"><path class="cls-3" d="M54,0H12V6H54Z"/><path class="cls-3" d="M12,6H6V17.88h6Z"/><path class="cls-3" d="M60,6H54V18h6Z"/><path class="cls-3" d="M6,18.08H0V42H6Z"/><path class="cls-3" d="M66,18.06H60V42h6Z"/><path class="cls-3" d="M60.06,42h-6V54h6Z"/><path class="cls-3" d="M12.06,42h-6V54h6Z"/><path class="cls-3" d="M48,60H42V84h6Z"/><path class="cls-3" d="M24.06,60.05h-6v24h6Z"/><path class="cls-3" d="M42,84H23.88v6H42Z"/><path class="cls-3" d="M42,60.05H23.88v6H42Z"/><path class="cls-3" d="M42,72.06H23.88v6H42Z"/><path class="cls-3" d="M18.06,54h-6v6h6Z"/><path class="cls-3" d="M54.06,54h-6v6h6Z"/><path class="cls-3" d="M42,42.09h4.45l6.53-18H48.54Z"/><path class="cls-3" d="M23.88,42.09H19.43l-6.53-18h4.44Z"/><path class="cls-3" d="M30,42.09H24v18h6Z"/><path class="cls-3" d="M42.06,42.09h-6v18h6Z"/></g></svg>