<svg width="66" height="67" viewBox="0 0 66 67" fill="none" xmlns="http://www.w3.org/2000/svg">
<g clip-path="url(#clip0)">
<path d="M12.07 23.98H0V30.1H12.07V23.98Z" fill="#06038D"/>
<path d="M65.97 24.03H53.99V30.03H65.97V24.03Z" fill="#06038D"/>
<path d="M59.97 42.03H5.97V48.03H59.97V42.03Z" fill="#06038D"/>
<path d="M53.98 18H12.07V23.98H53.98V18Z" fill="#06038D"/>
<path d="M65.97 30.03H59.97V36.03H65.97V30.03Z" fill="#06038D"/>
<path d="M23.91 30.1001H17.91V36.1001H23.91V30.1001Z" fill="#06038D"/>
<path d="M48 30.03H42V36.03H48V30.03Z" fill="#06038D"/>
<path d="M6.12 30.03H0V36.03H6.12V30.03Z" fill="#06038D"/>
<path d="M42 48.03H36V54.03H42V48.03Z" fill="#06038D"/>
<path d="M48 54.03H42V60.03H48V54.03Z" fill="#06038D"/>
<path d="M59.97 36.03H53.97V42.03H59.97V36.03Z" fill="#06038D"/>
<path d="M11.97 36.03H5.97V42.03H11.97V36.03Z" fill="#06038D"/>
<path d="M54 60.03H48V66.03H54V60.03Z" fill="#06038D"/>
<path d="M41.15 0H36.66L30.07 18H34.55L41.15 0Z" fill="#06038D"/>
<path d="M30.07 48.03H24.07V54.03H30.07V48.03Z" fill="#06038D"/>
<path d="M24.07 54.03H18.07V60.03H24.07V54.03Z" fill="#06038D"/>
<path d="M18.07 60.03H12.07V66.03H18.07V60.03Z" fill="#06038D"/>
<path d="M36.07 54.03H30.07V60.03H36.07V54.03Z" fill="#06038D"/>
</g>
<defs>
<clipPath id="clip0">
<rect width="65.97" height="66.03" fill="white"/>
</clipPath>
</defs>
</svg>
