<svg width="66" height="60" viewBox="0 0 66 60" fill="none" xmlns="http://www.w3.org/2000/svg">
<path d="M6 18H0V30.12H6V18Z" fill="#06038D"/>
<path d="M66 18H60V30.12H66V18Z" fill="#06038D"/>
<path d="M54 36.1201H12V42.1201H54V36.1201Z" fill="#06038D"/>
<path d="M24 12H6V18H24V12Z" fill="#06038D"/>
<path d="M42.09 6H24V12H42.09V6Z" fill="#06038D"/>
<path d="M60 12H42V18H60V12Z" fill="#06038D"/>
<path d="M60 30.1201H54V36.1201H60V30.1201Z" fill="#06038D"/>
<path d="M24 24H18V30H24V24Z" fill="#06038D"/>
<path d="M48 24H42V30H48V24Z" fill="#06038D"/>
<path d="M12 30.1201H6V36.1201H12V30.1201Z" fill="#06038D"/>
<path d="M12 42.1201H6V48.1201H12V42.1201Z" fill="#06038D"/>
<path d="M18 48.1201H12V54.1201H18V48.1201Z" fill="#06038D"/>
<path d="M58.49 42.1299H54.03L47.49 59.9999H51.94L58.49 42.1299Z" fill="#06038D"/>
<path d="M24 54H18V60H24V54Z" fill="#06038D"/>
<path d="M48.09 0H42.09V6H48.09V0Z" fill="#06038D"/>
<path d="M23.85 0H17.85V6H23.85V0Z" fill="#06038D"/>
</svg>
