<svg width="207" height="39" viewBox="0 0 207 39" fill="none" xmlns="http://www.w3.org/2000/svg">
<g id="46_NEXT 1">
<g id="Group">
<g id="Group_2">
<g id="Group_3">
<path id="Vector" d="M180.208 39H192.328L207 0H194.848L180.208 39Z" fill="#E03E52"/>
</g>
</g>
</g>
<path id="Vector_2" d="M0 0V39H15.9476V7.8H23.9214V39H39.869V3.9H35.8821V0H0Z" fill="#E03E52"/>
<path id="Vector_3" d="M50.7779 0V3.9H46.791V35.1V39H50.7779H86.6601V31.2H62.7386V23.4H74.6993V15.6H62.7386V7.8H86.6601V0H50.7779Z" fill="#E03E52"/>
<path id="Vector_4" d="M140.34 0V7.8H152.301V39H168.248V7.8H180.209V0H140.34Z" fill="#E03E52"/>
<path id="Vector_5" d="M117.47 0V15.6H109.496V0H93.5488V15.6H97.5357V23.4H93.5488V39H109.496V23.4H117.47V39H133.418V23.4H129.431V15.6H133.418V0H117.47Z" fill="#E03E52"/>
</g>
</svg>
